<svg width="128" height="128" viewBox="0 0 128 128" fill="none" xmlns="http://www.w3.org/2000/svg">
<g filter="url(#filter0_di_1_43)">
<circle cx="64" cy="64" r="64" fill="black" fill-opacity="0.25" shape-rendering="crispEdges"/>
<circle cx="64" cy="64" r="60" stroke="url(#paint0_linear_1_43)" stroke-width="8" shape-rendering="crispEdges"/>
<circle cx="64" cy="64" r="60" stroke="black" stroke-opacity="0.18" stroke-width="8" shape-rendering="crispEdges"/>
</g>
<g filter="url(#filter1_df_1_43)">
<mask id="path-3-outside-1_1_43" maskUnits="userSpaceOnUse" x="23" y="25" width="82" height="83" fill="black">
<rect fill="white" x="23" y="25" width="82" height="83"/>
<path d="M96.582 26.136C97.742 29.4613 98.902 32.748 100.062 35.996C101.222 39.244 102.343 42.608 103.426 46.088C102.807 46.2427 102.227 46.436 101.686 46.668C101.222 46.9 100.681 47.0933 100.062 47.248C98.5926 44 97.162 41.3707 95.77 39.36C94.4553 37.272 93.1406 35.6093 91.826 34.372C90.1246 32.8253 88.114 31.7813 85.794 31.24C83.474 30.6987 81.1926 30.428 78.95 30.428C74.4646 30.428 71.526 30.776 70.134 31.472C68.5873 32.168 67.814 33.56 67.814 35.648V97.244C67.814 99.4867 68.6646 101.072 70.366 102C71.9126 102.851 75.2766 103.276 80.458 103.276V106.988H47.746V103.276C52.386 103.276 55.518 102.889 57.142 102.116C59.3073 101.111 60.39 99.4867 60.39 97.244V34.72C60.39 33.096 59.7713 31.9747 58.534 31.356C57.374 30.7373 55.0153 30.428 51.458 30.428C48.7513 30.428 45.9673 30.66 43.106 31.124C40.322 31.588 37.9246 32.6707 35.914 34.372C35.0633 35.068 34.2513 35.9187 33.478 36.924C32.7046 37.852 31.8153 39.0893 30.81 40.636C30.1913 41.6413 29.6113 42.6467 29.07 43.652C28.5286 44.58 27.9486 45.5853 27.33 46.668C26.866 46.436 26.402 46.2427 25.938 46.088C25.5513 45.856 25.126 45.624 24.662 45.392C25.822 42.144 26.982 38.9347 28.142 35.764C29.302 32.5933 30.462 29.384 31.622 26.136H96.582Z"/>
</mask>
<path d="M96.582 26.136C97.742 29.4613 98.902 32.748 100.062 35.996C101.222 39.244 102.343 42.608 103.426 46.088C102.807 46.2427 102.227 46.436 101.686 46.668C101.222 46.9 100.681 47.0933 100.062 47.248C98.5926 44 97.162 41.3707 95.77 39.36C94.4553 37.272 93.1406 35.6093 91.826 34.372C90.1246 32.8253 88.114 31.7813 85.794 31.24C83.474 30.6987 81.1926 30.428 78.95 30.428C74.4646 30.428 71.526 30.776 70.134 31.472C68.5873 32.168 67.814 33.56 67.814 35.648V97.244C67.814 99.4867 68.6646 101.072 70.366 102C71.9126 102.851 75.2766 103.276 80.458 103.276V106.988H47.746V103.276C52.386 103.276 55.518 102.889 57.142 102.116C59.3073 101.111 60.39 99.4867 60.39 97.244V34.72C60.39 33.096 59.7713 31.9747 58.534 31.356C57.374 30.7373 55.0153 30.428 51.458 30.428C48.7513 30.428 45.9673 30.66 43.106 31.124C40.322 31.588 37.9246 32.6707 35.914 34.372C35.0633 35.068 34.2513 35.9187 33.478 36.924C32.7046 37.852 31.8153 39.0893 30.81 40.636C30.1913 41.6413 29.6113 42.6467 29.07 43.652C28.5286 44.58 27.9486 45.5853 27.33 46.668C26.866 46.436 26.402 46.2427 25.938 46.088C25.5513 45.856 25.126 45.624 24.662 45.392C25.822 42.144 26.982 38.9347 28.142 35.764C29.302 32.5933 30.462 29.384 31.622 26.136H96.582Z" fill="url(#paint1_linear_1_43)"/>
<path d="M96.582 26.136L97.5262 25.8066L97.2922 25.136H96.582V26.136ZM103.426 46.088L103.668 47.0581L104.695 46.8015L104.381 45.7909L103.426 46.088ZM101.686 46.668L101.292 45.7489L101.265 45.7604L101.239 45.7736L101.686 46.668ZM100.062 47.248L99.1508 47.6602L99.4948 48.4206L100.304 48.2181L100.062 47.248ZM95.77 39.36L94.9237 39.8928L94.9353 39.9113L94.9478 39.9292L95.77 39.36ZM91.826 34.372L92.5113 33.6438L92.505 33.6379L92.4986 33.6321L91.826 34.372ZM85.794 31.24L85.5667 32.2138L85.5667 32.2138L85.794 31.24ZM70.134 31.472L70.5443 32.3839L70.5629 32.3755L70.5812 32.3664L70.134 31.472ZM70.366 102L70.8479 101.124L70.8448 101.122L70.366 102ZM80.458 103.276H81.458V102.276H80.458V103.276ZM80.458 106.988V107.988H81.458V106.988H80.458ZM47.746 106.988H46.746V107.988H47.746V106.988ZM47.746 103.276V102.276H46.746V103.276H47.746ZM57.142 102.116L56.7208 101.209L56.712 101.213L57.142 102.116ZM58.534 31.356L58.0634 32.2383L58.075 32.2445L58.0867 32.2504L58.534 31.356ZM43.106 31.124L42.9459 30.1369L42.9416 30.1376L43.106 31.124ZM35.914 34.372L36.5472 35.146L36.5536 35.1407L36.5599 35.1354L35.914 34.372ZM33.478 36.924L34.2462 37.5642L34.2587 37.5492L34.2706 37.5337L33.478 36.924ZM30.81 40.636L29.9715 40.091L29.9648 40.1014L29.9583 40.1119L30.81 40.636ZM29.07 43.652L29.9337 44.1559L29.9423 44.1411L29.9504 44.1261L29.07 43.652ZM27.33 46.668L26.8827 47.5624L27.7289 47.9855L28.1982 47.1641L27.33 46.668ZM25.938 46.088L25.4235 46.9455L25.5176 47.002L25.6217 47.0367L25.938 46.088ZM24.662 45.392L23.7202 45.0557L23.4222 45.8901L24.2147 46.2864L24.662 45.392ZM28.142 35.764L29.0811 36.1076V36.1076L28.142 35.764ZM31.622 26.136V25.136H30.9172L30.6802 25.7997L31.622 26.136ZM96.582 26.136L95.6378 26.4654C96.7986 29.793 97.9594 33.082 99.1202 36.3323L100.062 35.996L101.004 35.6597C99.8445 32.414 98.6854 29.1297 97.5262 25.8066L96.582 26.136ZM100.062 35.996L99.1202 36.3323C100.275 39.5666 101.392 42.9175 102.471 46.3851L103.426 46.088L104.381 45.7909C103.294 42.2985 102.169 38.9214 101.004 35.6597L100.062 35.996ZM103.426 46.088L103.183 45.1179C102.517 45.2844 101.886 45.4942 101.292 45.7489L101.686 46.668L102.08 47.5871C102.568 47.3778 103.097 47.2009 103.668 47.0581L103.426 46.088ZM101.686 46.668L101.239 45.7736C100.853 45.9665 100.383 46.137 99.8194 46.2779L100.062 47.248L100.304 48.2181C100.979 48.0496 101.591 47.8335 102.133 47.5624L101.686 46.668ZM100.062 47.248L100.973 46.8358C99.4891 43.5554 98.0301 40.8679 96.5921 38.7908L95.77 39.36L94.9478 39.9292C96.2938 41.8735 97.6962 44.4446 99.1508 47.6602L100.062 47.248ZM95.77 39.36L96.6162 38.8272C95.2716 36.6917 93.9055 34.956 92.5113 33.6438L91.826 34.372L91.1406 35.1002C92.3757 36.2627 93.6389 37.8523 94.9237 39.8928L95.77 39.36ZM91.826 34.372L92.4986 33.6321C90.6665 31.9665 88.5009 30.8448 86.0212 30.2662L85.794 31.24L85.5667 32.2138C87.727 32.7179 89.5827 33.6842 91.1533 35.1119L91.826 34.372ZM85.794 31.24L86.0212 30.2662C83.6313 29.7085 81.2737 29.428 78.95 29.428V30.428V31.428C81.1115 31.428 83.3166 31.6888 85.5667 32.2138L85.794 31.24ZM78.95 30.428V29.428C76.6858 29.428 74.7871 29.5156 73.2644 29.6959C71.7644 29.8736 70.5415 30.1502 69.6867 30.5776L70.134 31.472L70.5812 32.3664C71.1184 32.0978 72.0608 31.8524 73.4996 31.6821C74.9155 31.5144 76.7288 31.428 78.95 31.428V30.428ZM70.134 31.472L69.7236 30.5601C68.7674 30.9904 68.0181 31.6554 67.5198 32.5524C67.0288 33.4361 66.814 34.4853 66.814 35.648H67.814H68.814C68.814 34.7227 68.9857 34.0319 69.2681 33.5236C69.5431 33.0286 69.9539 32.6496 70.5443 32.3839L70.134 31.472ZM67.814 35.648H66.814V97.244H67.814H68.814V35.648H67.814ZM67.814 97.244H66.814C66.814 99.7831 67.8078 101.744 69.8871 102.878L70.366 102L70.8448 101.122C69.5214 100.4 68.814 99.1902 68.814 97.244H67.814ZM70.366 102L69.884 102.876C70.828 103.395 72.2101 103.732 73.9235 103.949C75.6627 104.169 77.8448 104.276 80.458 104.276V103.276V102.276C77.8898 102.276 75.7992 102.17 74.1744 101.965C72.5239 101.756 71.4506 101.455 70.8479 101.124L70.366 102ZM80.458 103.276H79.458V106.988H80.458H81.458V103.276H80.458ZM80.458 106.988V105.988H47.746V106.988V107.988H80.458V106.988ZM47.746 106.988H48.746V103.276H47.746H46.746V106.988H47.746ZM47.746 103.276V104.276C50.0898 104.276 52.0768 104.179 53.6975 103.978C55.3025 103.78 56.6162 103.474 57.5719 103.019L57.142 102.116L56.712 101.213C56.0437 101.531 54.9795 101.805 53.4524 101.994C51.9411 102.18 50.0421 102.276 47.746 102.276V103.276ZM57.142 102.116L57.5631 103.023C58.7753 102.46 59.7461 101.695 60.41 100.699C61.0765 99.6989 61.39 98.5325 61.39 97.244H60.39H59.39C59.39 98.1982 59.1621 98.9651 58.7459 99.5893C58.3271 100.217 57.674 100.766 56.7208 101.209L57.142 102.116ZM60.39 97.244H61.39V34.72H60.39H59.39V97.244H60.39ZM60.39 34.72H61.39C61.39 33.7834 61.2115 32.921 60.8015 32.1779C60.3864 31.4255 59.7657 30.8538 58.9812 30.4616L58.534 31.356L58.0867 32.2504C58.5395 32.4768 58.8468 32.7751 59.0504 33.1441C59.2591 33.5223 59.39 34.0326 59.39 34.72H60.39ZM58.534 31.356L59.0045 30.4736C58.265 30.0792 57.2431 29.8282 56.025 29.6685C54.7871 29.5061 53.2611 29.428 51.458 29.428V30.428V31.428C53.2122 31.428 54.6442 31.5045 55.7649 31.6515C56.9055 31.8011 57.6429 32.0141 58.0634 32.2383L58.534 31.356ZM51.458 30.428V29.428C48.694 29.428 45.8564 29.6649 42.9459 30.1369L43.106 31.124L43.266 32.1111C46.0781 31.6551 48.8085 31.428 51.458 31.428V30.428ZM43.106 31.124L42.9416 30.1376C39.9931 30.629 37.426 31.7826 35.268 33.6086L35.914 34.372L36.5599 35.1354C38.4232 33.5587 40.6508 32.547 43.2704 32.1104L43.106 31.124ZM35.914 34.372L35.2807 33.598C34.3626 34.3493 33.4984 35.2574 32.6853 36.3143L33.478 36.924L34.2706 37.5337C35.0042 36.58 35.764 35.7867 36.5472 35.146L35.914 34.372ZM33.478 36.924L32.7097 36.2838C31.9017 37.2535 30.9884 38.5265 29.9715 40.091L30.81 40.636L31.6484 41.181C32.6422 39.6521 33.5076 38.4505 34.2462 37.5642L33.478 36.924ZM30.81 40.636L29.9583 40.1119C29.3299 41.1331 28.7402 42.1551 28.1895 43.1779L29.07 43.652L29.9504 44.1261C30.4823 43.1383 31.0527 42.1496 31.6616 41.1601L30.81 40.636ZM29.07 43.652L28.2062 43.1481C27.6631 44.0791 27.0816 45.087 26.4617 46.1719L27.33 46.668L28.1982 47.1641C28.8156 46.0837 29.3941 45.0809 29.9337 44.1559L29.07 43.652ZM27.33 46.668L27.7772 45.7736C27.2734 45.5217 26.7657 45.3098 26.2542 45.1393L25.938 46.088L25.6217 47.0367C26.0382 47.1755 26.4585 47.3503 26.8827 47.5624L27.33 46.668ZM25.938 46.088L26.4524 45.2305C26.0409 44.9836 25.5927 44.7394 25.1092 44.4976L24.662 45.392L24.2147 46.2864C24.6592 46.5086 25.0617 46.7284 25.4235 46.9455L25.938 46.088ZM24.662 45.392L25.6037 45.7283C26.7628 42.4827 27.922 39.2758 29.0811 36.1076L28.142 35.764L27.2028 35.4204C26.0419 38.5935 24.8811 41.8053 23.7202 45.0557L24.662 45.392ZM28.142 35.764L29.0811 36.1076C30.242 32.9344 31.4028 29.7227 32.5637 26.4723L31.622 26.136L30.6802 25.7997C29.5211 29.0453 28.3619 32.2522 27.2028 35.4204L28.142 35.764ZM31.622 26.136V27.136H96.582V26.136V25.136H31.622V26.136Z" fill="black" mask="url(#path-3-outside-1_1_43)"/>
</g>
<circle cx="64" cy="64" r="63.5" stroke="black"/>
<circle cx="64" cy="64" r="55.5" stroke="black"/>
<defs>
<filter id="filter0_di_1_43" x="-12" y="-12" width="152" height="152" filterUnits="userSpaceOnUse" color-interpolation-filters="sRGB">
<feFlood flood-opacity="0" result="BackgroundImageFix"/>
<feColorMatrix in="SourceAlpha" type="matrix" values="0 0 0 0 0 0 0 0 0 0 0 0 0 0 0 0 0 0 127 0" result="hardAlpha"/>
<feOffset/>
<feGaussianBlur stdDeviation="6"/>
<feComposite in2="hardAlpha" operator="out"/>
<feColorMatrix type="matrix" values="0 0 0 0 0.65098 0 0 0 0 0.890196 0 0 0 0 0.631373 0 0 0 0.3 0"/>
<feBlend mode="normal" in2="BackgroundImageFix" result="effect1_dropShadow_1_43"/>
<feBlend mode="normal" in="SourceGraphic" in2="effect1_dropShadow_1_43" result="shape"/>
<feColorMatrix in="SourceAlpha" type="matrix" values="0 0 0 0 0 0 0 0 0 0 0 0 0 0 0 0 0 0 127 0" result="hardAlpha"/>
<feOffset dy="2"/>
<feGaussianBlur stdDeviation="2"/>
<feComposite in2="hardAlpha" operator="arithmetic" k2="-1" k3="1"/>
<feColorMatrix type="matrix" values="0 0 0 0 0.117647 0 0 0 0 0.117647 0 0 0 0 0.180392 0 0 0 0.2 0"/>
<feBlend mode="normal" in2="shape" result="effect2_innerShadow_1_43"/>
</filter>
<filter id="filter1_df_1_43" x="19.4222" y="24.136" width="89.273" height="91.852" filterUnits="userSpaceOnUse" color-interpolation-filters="sRGB">
<feFlood flood-opacity="0" result="BackgroundImageFix"/>
<feColorMatrix in="SourceAlpha" type="matrix" values="0 0 0 0 0 0 0 0 0 0 0 0 0 0 0 0 0 0 127 0" result="hardAlpha"/>
<feOffset dy="4"/>
<feGaussianBlur stdDeviation="2"/>
<feComposite in2="hardAlpha" operator="out"/>
<feColorMatrix type="matrix" values="0 0 0 0 0 0 0 0 0 0 0 0 0 0 0 0 0 0 0.25 0"/>
<feBlend mode="normal" in2="BackgroundImageFix" result="effect1_dropShadow_1_43"/>
<feBlend mode="normal" in="SourceGraphic" in2="effect1_dropShadow_1_43" result="shape"/>
<feGaussianBlur stdDeviation="0.5" result="effect2_foregroundBlur_1_43"/>
</filter>
<linearGradient id="paint0_linear_1_43" x1="64" y1="0" x2="64" y2="128" gradientUnits="userSpaceOnUse">
<stop stop-color="#A6E3A1"/>
<stop offset="1" stop-color="#94E2D5"/>
</linearGradient>
<linearGradient id="paint1_linear_1_43" x1="64" y1="3" x2="64" y2="131" gradientUnits="userSpaceOnUse">
<stop stop-color="#A6E3A1"/>
<stop offset="1" stop-color="#94E2D5"/>
</linearGradient>
</defs>
</svg>
