<svg width="256" height="256" viewBox="0 0 256 256" fill="none" xmlns="http://www.w3.org/2000/svg">
<g filter="url(#filter0_di_1_158)">
<circle cx="128" cy="128" r="128" fill="black" fill-opacity="0.25" shape-rendering="crispEdges"/>
<circle cx="128" cy="128" r="120" stroke="url(#paint0_linear_1_158)" stroke-width="16" shape-rendering="crispEdges"/>
<circle cx="128" cy="128" r="120" stroke="black" stroke-opacity="0.18" stroke-width="16" shape-rendering="crispEdges"/>
</g>
<g filter="url(#filter1_df_1_158)">
<mask id="path-3-outside-1_1_158" maskUnits="userSpaceOnUse" x="42" y="52" width="172" height="176" fill="black">
<rect fill="white" x="42" y="52" width="172" height="176"/>
<path d="M197.658 53.808C200.138 60.9173 202.618 67.944 205.098 74.888C207.578 81.832 209.975 89.024 212.29 96.464C210.967 96.7947 209.727 97.208 208.57 97.704C207.578 98.2 206.421 98.6133 205.098 98.944C201.957 92 198.898 86.3787 195.922 82.08C193.111 77.616 190.301 74.0613 187.49 71.416C183.853 68.1093 179.554 65.8773 174.594 64.72C169.634 63.5627 164.757 62.984 159.962 62.984C150.373 62.984 144.09 63.728 141.114 65.216C137.807 66.704 136.154 69.68 136.154 74.144V205.832C136.154 210.627 137.973 214.016 141.61 216C144.917 217.819 152.109 218.728 163.186 218.728V226.664H93.25V218.728C103.17 218.728 109.866 217.901 113.338 216.248C117.967 214.099 120.282 210.627 120.282 205.832V72.16C120.282 68.688 118.959 66.2907 116.314 64.968C113.834 63.6453 108.791 62.984 101.186 62.984C95.3993 62.984 89.4473 63.48 83.33 64.472C77.378 65.464 72.2526 67.7787 67.954 71.416C66.1353 72.904 64.3993 74.7227 62.746 76.872C61.0926 78.856 59.1913 81.5013 57.042 84.808C55.7193 86.9573 54.4793 89.1067 53.322 91.256C52.1646 93.24 50.9246 95.3893 49.602 97.704C48.61 97.208 47.618 96.7947 46.626 96.464C45.7993 95.968 44.89 95.472 43.898 94.976C46.378 88.032 48.858 81.1707 51.338 74.392C53.818 67.6133 56.298 60.752 58.778 53.808H197.658Z"/>
</mask>
<path d="M197.658 53.808C200.138 60.9173 202.618 67.944 205.098 74.888C207.578 81.832 209.975 89.024 212.29 96.464C210.967 96.7947 209.727 97.208 208.57 97.704C207.578 98.2 206.421 98.6133 205.098 98.944C201.957 92 198.898 86.3787 195.922 82.08C193.111 77.616 190.301 74.0613 187.49 71.416C183.853 68.1093 179.554 65.8773 174.594 64.72C169.634 63.5627 164.757 62.984 159.962 62.984C150.373 62.984 144.09 63.728 141.114 65.216C137.807 66.704 136.154 69.68 136.154 74.144V205.832C136.154 210.627 137.973 214.016 141.61 216C144.917 217.819 152.109 218.728 163.186 218.728V226.664H93.25V218.728C103.17 218.728 109.866 217.901 113.338 216.248C117.967 214.099 120.282 210.627 120.282 205.832V72.16C120.282 68.688 118.959 66.2907 116.314 64.968C113.834 63.6453 108.791 62.984 101.186 62.984C95.3993 62.984 89.4473 63.48 83.33 64.472C77.378 65.464 72.2526 67.7787 67.954 71.416C66.1353 72.904 64.3993 74.7227 62.746 76.872C61.0926 78.856 59.1913 81.5013 57.042 84.808C55.7193 86.9573 54.4793 89.1067 53.322 91.256C52.1646 93.24 50.9246 95.3893 49.602 97.704C48.61 97.208 47.618 96.7947 46.626 96.464C45.7993 95.968 44.89 95.472 43.898 94.976C46.378 88.032 48.858 81.1707 51.338 74.392C53.818 67.6133 56.298 60.752 58.778 53.808H197.658Z" fill="url(#paint1_linear_1_158)"/>
<path d="M197.658 53.808L198.602 53.4786L198.368 52.808H197.658V53.808ZM212.29 96.464L212.533 97.4341L213.559 97.1775L213.245 96.1669L212.29 96.464ZM208.57 97.704L208.176 96.7848L208.149 96.7964L208.123 96.8096L208.57 97.704ZM205.098 98.944L204.187 99.3562L204.531 100.117L205.341 99.9141L205.098 98.944ZM195.922 82.08L195.076 82.6128L195.087 82.6313L195.1 82.6492L195.922 82.08ZM187.49 71.416L188.175 70.6878L188.169 70.6819L188.163 70.6761L187.49 71.416ZM174.594 64.72L174.367 65.6938V65.6938L174.594 64.72ZM141.114 65.216L141.524 66.1279L141.543 66.1195L141.561 66.1104L141.114 65.216ZM141.61 216L142.092 215.124L142.089 215.122L141.61 216ZM163.186 218.728H164.186V217.728H163.186V218.728ZM163.186 226.664V227.664H164.186V226.664H163.186ZM93.25 226.664H92.25V227.664H93.25V226.664ZM93.25 218.728V217.728H92.25V218.728H93.25ZM113.338 216.248L112.917 215.341L112.908 215.345L113.338 216.248ZM116.314 64.968L115.843 65.8503L115.855 65.8565L115.867 65.8624L116.314 64.968ZM83.33 64.472L83.1699 63.4849L83.1656 63.4856L83.33 64.472ZM67.954 71.416L68.5872 72.19L68.5936 72.1847L68.5999 72.1794L67.954 71.416ZM62.746 76.872L63.5142 77.5122L63.5267 77.4972L63.5386 77.4817L62.746 76.872ZM57.042 84.808L56.2035 84.263L56.1968 84.2734L56.1903 84.2839L57.042 84.808ZM53.322 91.256L54.1857 91.7599L54.1943 91.7451L54.2024 91.7301L53.322 91.256ZM49.602 97.704L49.1548 98.5984L50.0009 99.0215L50.4702 98.2001L49.602 97.704ZM46.626 96.464L46.1115 97.3215L46.2056 97.378L46.3097 97.4127L46.626 96.464ZM43.898 94.976L42.9562 94.6397L42.6582 95.4741L43.4508 95.8704L43.898 94.976ZM51.338 74.392L52.2771 74.7356V74.7356L51.338 74.392ZM58.778 53.808V52.808H58.0732L57.8362 53.4717L58.778 53.808ZM197.658 53.808L196.714 54.1374C199.195 61.249 201.675 68.278 204.156 75.2243L205.098 74.888L206.04 74.5517C203.561 67.61 201.081 60.5857 198.602 53.4786L197.658 53.808ZM205.098 74.888L204.156 75.2243C206.631 82.1546 209.024 89.3335 211.335 96.7611L212.29 96.464L213.245 96.1669C210.926 88.7145 208.525 81.5094 206.04 74.5517L205.098 74.888ZM212.29 96.464L212.047 95.4939C210.677 95.8364 209.386 96.2662 208.176 96.7848L208.57 97.704L208.964 98.6231C210.068 98.1498 211.257 97.7529 212.533 97.4341L212.29 96.464ZM208.57 97.704L208.123 96.8096C207.209 97.2665 206.123 97.657 204.855 97.9738L205.098 98.944L205.341 99.9141C206.719 99.5696 207.947 99.1335 209.017 98.5984L208.57 97.704ZM205.098 98.944L206.009 98.5318C202.853 91.5554 199.766 85.8759 196.744 81.5108L195.922 82.08L195.1 82.6492C198.03 86.8815 201.06 92.4446 204.187 99.3562L205.098 98.944ZM195.922 82.08L196.768 81.5472C193.928 77.0357 191.066 73.408 188.175 70.6878L187.49 71.416L186.805 72.1442C189.536 74.7147 192.295 78.1963 195.076 82.6128L195.922 82.08ZM187.49 71.416L188.163 70.6761C184.395 67.2505 179.941 64.9408 174.821 63.7462L174.594 64.72L174.367 65.6938C179.167 66.8139 183.311 68.9682 186.817 72.1559L187.49 71.416ZM174.594 64.72L174.821 63.7462C169.791 62.5725 164.838 61.984 159.962 61.984V62.984V63.984C164.676 63.984 169.477 64.5528 174.367 65.6938L174.594 64.72ZM159.962 62.984V61.984C155.146 61.984 151.135 62.1706 147.94 62.5489C144.768 62.9246 142.314 63.4982 140.667 64.3216L141.114 65.216L141.561 66.1104C142.89 65.4458 145.065 64.9034 148.176 64.535C151.263 64.1694 155.189 63.984 159.962 63.984V62.984ZM141.114 65.216L140.704 64.3041C138.867 65.1304 137.458 66.3894 136.52 68.0784C135.589 69.7541 135.154 71.7933 135.154 74.144H136.154H137.154C137.154 72.0307 137.546 70.3499 138.268 69.0496C138.983 67.7626 140.054 66.7896 141.524 66.1279L141.114 65.216ZM136.154 74.144H135.154V205.832H136.154H137.154V74.144H136.154ZM136.154 205.832H135.154C135.154 210.923 137.116 214.688 141.131 216.878L141.61 216L142.089 215.122C138.829 213.344 137.154 210.33 137.154 205.832H136.154ZM141.61 216L141.128 216.876C142.952 217.879 145.731 218.579 149.359 219.038C153.012 219.5 157.625 219.728 163.186 219.728V218.728V217.728C157.67 217.728 153.148 217.501 149.609 217.054C146.045 216.603 143.575 215.939 142.092 215.124L141.61 216ZM163.186 218.728H162.186V226.664H163.186H164.186V218.728H163.186ZM163.186 226.664V225.664H93.25V226.664V227.664H163.186V226.664ZM93.25 226.664H94.25V218.728H93.25H92.25V226.664H93.25ZM93.25 218.728V219.728C98.2338 219.728 102.432 219.521 105.835 219.1C109.221 218.682 111.888 218.046 113.768 217.151L113.338 216.248L112.908 215.345C111.316 216.103 108.898 216.707 105.589 217.116C102.296 217.522 98.1861 217.728 93.25 217.728V218.728ZM113.338 216.248L113.759 217.155C116.203 216.02 118.098 214.507 119.378 212.587C120.661 210.663 121.282 208.396 121.282 205.832H120.282H119.282C119.282 208.062 118.746 209.929 117.714 211.477C116.679 213.029 115.102 214.326 112.917 215.341L113.338 216.248ZM120.282 205.832H121.282V72.16H120.282H119.282V205.832H120.282ZM120.282 72.16H121.282C121.282 70.2994 120.928 68.656 120.166 67.2749C119.398 65.8845 118.25 64.8178 116.761 64.0736L116.314 64.968L115.867 65.8624C117.024 66.4408 117.859 67.2341 118.414 68.2411C118.975 69.2573 119.282 70.5486 119.282 72.16H120.282ZM116.314 64.968L116.785 64.0856C115.385 63.3392 113.362 62.8242 110.802 62.4885C108.222 62.1501 105.013 61.984 101.186 61.984V62.984V63.984C104.964 63.984 108.079 64.1485 110.542 64.4715C113.024 64.7971 114.763 65.2741 115.843 65.8503L116.314 64.968ZM101.186 62.984V61.984C95.3421 61.984 89.3364 62.4849 83.1699 63.4849L83.33 64.472L83.49 65.4591C89.5582 64.4751 95.4566 63.984 101.186 63.984V62.984ZM83.33 64.472L83.1656 63.4856C77.0491 64.505 71.7541 66.8906 67.308 70.6526L67.954 71.416L68.5999 72.1794C72.7512 68.6667 77.7068 66.423 83.4944 65.4584L83.33 64.472ZM67.954 71.416L67.3207 70.642C65.4346 72.1853 63.6464 74.0614 61.9533 76.2623L62.746 76.872L63.5386 77.4817C65.1522 75.384 66.836 73.6227 68.5872 72.19L67.954 71.416ZM62.746 76.872L61.9777 76.2318C60.2897 78.2575 58.3644 80.9385 56.2035 84.263L57.042 84.808L57.8804 85.353C60.0182 82.0641 61.8956 79.4545 63.5142 77.5122L62.746 76.872ZM57.042 84.808L56.1903 84.2839C54.8579 86.4491 53.6083 88.6151 52.4415 90.7819L53.322 91.256L54.2024 91.7301C55.3504 89.5983 56.5807 87.4656 57.8936 85.3321L57.042 84.808ZM53.322 91.256L52.4582 90.7521C51.2991 92.7391 50.0576 94.891 48.7337 97.2079L49.602 97.704L50.4702 98.2001C51.7916 95.8876 53.0301 93.7409 54.1857 91.7599L53.322 91.256ZM49.602 97.704L50.0492 96.8096C49.0174 96.2937 47.9817 95.8618 46.9422 95.5153L46.626 96.464L46.3097 97.4127C47.2542 97.7275 48.2025 98.1223 49.1548 98.5984L49.602 97.704ZM46.626 96.464L47.1405 95.6065C46.2889 95.0956 45.3568 94.5874 44.3452 94.0816L43.898 94.976L43.4508 95.8704C44.4232 96.3566 45.3097 96.8404 46.1115 97.3215L46.626 96.464ZM43.898 94.976L44.8397 95.3123C47.3189 88.3707 49.798 81.5118 52.2771 74.7356L51.338 74.392L50.3988 74.0484C47.9179 80.8295 45.4371 87.6933 42.9562 94.6397L43.898 94.976ZM51.338 74.392L52.2771 74.7356C54.758 67.9544 57.2389 61.0907 59.7197 54.1443L58.778 53.808L57.8362 53.4717C55.3571 60.4133 52.8779 67.2722 50.3988 74.0484L51.338 74.392ZM58.778 53.808V54.808H197.658V53.808V52.808H58.778V53.808Z" fill="black" mask="url(#path-3-outside-1_1_158)"/>
</g>
<circle cx="128" cy="128" r="127" stroke="black" stroke-width="2"/>
<circle cx="128" cy="128" r="112.5" stroke="black" stroke-width="3"/>
<defs>
<filter id="filter0_di_1_158" x="-12" y="-12" width="280" height="280" filterUnits="userSpaceOnUse" color-interpolation-filters="sRGB">
<feFlood flood-opacity="0" result="BackgroundImageFix"/>
<feColorMatrix in="SourceAlpha" type="matrix" values="0 0 0 0 0 0 0 0 0 0 0 0 0 0 0 0 0 0 127 0" result="hardAlpha"/>
<feOffset/>
<feGaussianBlur stdDeviation="6"/>
<feComposite in2="hardAlpha" operator="out"/>
<feColorMatrix type="matrix" values="0 0 0 0 0.65098 0 0 0 0 0.890196 0 0 0 0 0.631373 0 0 0 0.3 0"/>
<feBlend mode="normal" in2="BackgroundImageFix" result="effect1_dropShadow_1_158"/>
<feBlend mode="normal" in="SourceGraphic" in2="effect1_dropShadow_1_158" result="shape"/>
<feColorMatrix in="SourceAlpha" type="matrix" values="0 0 0 0 0 0 0 0 0 0 0 0 0 0 0 0 0 0 127 0" result="hardAlpha"/>
<feOffset dy="2"/>
<feGaussianBlur stdDeviation="2"/>
<feComposite in2="hardAlpha" operator="arithmetic" k2="-1" k3="1"/>
<feColorMatrix type="matrix" values="0 0 0 0 0.117647 0 0 0 0 0.117647 0 0 0 0 0.180392 0 0 0 0.2 0"/>
<feBlend mode="normal" in2="shape" result="effect2_innerShadow_1_158"/>
</filter>
<filter id="filter1_df_1_158" x="38.6582" y="51.808" width="178.901" height="183.856" filterUnits="userSpaceOnUse" color-interpolation-filters="sRGB">
<feFlood flood-opacity="0" result="BackgroundImageFix"/>
<feColorMatrix in="SourceAlpha" type="matrix" values="0 0 0 0 0 0 0 0 0 0 0 0 0 0 0 0 0 0 127 0" result="hardAlpha"/>
<feOffset dy="4"/>
<feGaussianBlur stdDeviation="2"/>
<feComposite in2="hardAlpha" operator="out"/>
<feColorMatrix type="matrix" values="0 0 0 0 0 0 0 0 0 0 0 0 0 0 0 0 0 0 0.25 0"/>
<feBlend mode="normal" in2="BackgroundImageFix" result="effect1_dropShadow_1_158"/>
<feBlend mode="normal" in="SourceGraphic" in2="effect1_dropShadow_1_158" result="shape"/>
<feGaussianBlur stdDeviation="0.5" result="effect2_foregroundBlur_1_158"/>
</filter>
<linearGradient id="paint0_linear_1_158" x1="128" y1="0" x2="128" y2="256" gradientUnits="userSpaceOnUse">
<stop stop-color="#A6E3A1"/>
<stop offset="1" stop-color="#94E2D5"/>
</linearGradient>
<linearGradient id="paint1_linear_1_158" x1="128" y1="14" x2="128" y2="270" gradientUnits="userSpaceOnUse">
<stop stop-color="#A6E3A1"/>
<stop offset="1" stop-color="#94E2D5"/>
</linearGradient>
</defs>
</svg>
