<svg width="32" height="32" viewBox="0 0 32 32" fill="none" xmlns="http://www.w3.org/2000/svg">
<g filter="url(#filter0_di_1_18)">
<circle cx="16" cy="16" r="16" fill="black" fill-opacity="0.25" shape-rendering="crispEdges"/>
<circle cx="16" cy="16" r="15" stroke="url(#paint0_linear_1_18)" stroke-width="2" shape-rendering="crispEdges"/>
<circle cx="16" cy="16" r="15" stroke="black" stroke-opacity="0.18" stroke-width="2" shape-rendering="crispEdges"/>
</g>
<g filter="url(#filter1_df_1_18)">
<mask id="path-3-outside-1_1_18" maskUnits="userSpaceOnUse" x="5" y="5" width="22" height="23" fill="black">
<rect fill="white" x="5" y="5" width="22" height="23"/>
<path d="M23.8646 6.688C24.1446 7.49067 24.4246 8.284 24.7046 9.068C24.9846 9.852 25.2553 10.664 25.5166 11.504C25.3673 11.5413 25.2273 11.588 25.0966 11.644C24.9846 11.7 24.8539 11.7467 24.7046 11.784C24.3499 11 24.0046 10.3653 23.6686 9.88C23.3513 9.376 23.0339 8.97467 22.7166 8.676C22.3059 8.30267 21.8206 8.05067 21.2606 7.92C20.7006 7.78933 20.1499 7.724 19.6086 7.724C18.5259 7.724 17.8166 7.808 17.4806 7.976C17.1073 8.144 16.9206 8.48 16.9206 8.984V23.852C16.9206 24.3933 17.1259 24.776 17.5366 25C17.9099 25.2053 18.7219 25.308 19.9726 25.308V26.204H12.0766V25.308C13.1966 25.308 13.9526 25.2147 14.3446 25.028C14.8673 24.7853 15.1286 24.3933 15.1286 23.852V8.76C15.1286 8.368 14.9793 8.09733 14.6806 7.948C14.4006 7.79867 13.8313 7.724 12.9726 7.724C12.3193 7.724 11.6473 7.78 10.9566 7.892C10.2846 8.004 9.70594 8.26533 9.22061 8.676C9.01528 8.844 8.81928 9.04933 8.63261 9.292C8.44594 9.516 8.23128 9.81467 7.98861 10.188C7.83928 10.4307 7.69928 10.6733 7.56861 10.916C7.43794 11.14 7.29794 11.3827 7.14861 11.644C7.03661 11.588 6.92461 11.5413 6.81261 11.504C6.71928 11.448 6.61661 11.392 6.50461 11.336C6.78461 10.552 7.06461 9.77733 7.34461 9.012C7.62461 8.24667 7.90461 7.472 8.18461 6.688H23.8646Z"/>
</mask>
<path d="M23.8646 6.688C24.1446 7.49067 24.4246 8.284 24.7046 9.068C24.9846 9.852 25.2553 10.664 25.5166 11.504C25.3673 11.5413 25.2273 11.588 25.0966 11.644C24.9846 11.7 24.8539 11.7467 24.7046 11.784C24.3499 11 24.0046 10.3653 23.6686 9.88C23.3513 9.376 23.0339 8.97467 22.7166 8.676C22.3059 8.30267 21.8206 8.05067 21.2606 7.92C20.7006 7.78933 20.1499 7.724 19.6086 7.724C18.5259 7.724 17.8166 7.808 17.4806 7.976C17.1073 8.144 16.9206 8.48 16.9206 8.984V23.852C16.9206 24.3933 17.1259 24.776 17.5366 25C17.9099 25.2053 18.7219 25.308 19.9726 25.308V26.204H12.0766V25.308C13.1966 25.308 13.9526 25.2147 14.3446 25.028C14.8673 24.7853 15.1286 24.3933 15.1286 23.852V8.76C15.1286 8.368 14.9793 8.09733 14.6806 7.948C14.4006 7.79867 13.8313 7.724 12.9726 7.724C12.3193 7.724 11.6473 7.78 10.9566 7.892C10.2846 8.004 9.70594 8.26533 9.22061 8.676C9.01528 8.844 8.81928 9.04933 8.63261 9.292C8.44594 9.516 8.23128 9.81467 7.98861 10.188C7.83928 10.4307 7.69928 10.6733 7.56861 10.916C7.43794 11.14 7.29794 11.3827 7.14861 11.644C7.03661 11.588 6.92461 11.5413 6.81261 11.504C6.71928 11.448 6.61661 11.392 6.50461 11.336C6.78461 10.552 7.06461 9.77733 7.34461 9.012C7.62461 8.24667 7.90461 7.472 8.18461 6.688H23.8646Z" fill="url(#paint1_linear_1_18)"/>
<path d="M23.8646 6.688L24.8088 6.35863L24.5749 5.688H23.8646V6.688ZM25.5166 11.504L25.7591 12.4741L26.7859 12.2175L26.4715 11.2069L25.5166 11.504ZM25.0966 11.644L24.7027 10.7249L24.6757 10.7364L24.6494 10.7496L25.0966 11.644ZM24.7046 11.784L23.7935 12.1962L24.1375 12.9566L24.9471 12.7541L24.7046 11.784ZM23.6686 9.88L22.8224 10.4128L22.834 10.4313L22.8464 10.4492L23.6686 9.88ZM22.7166 8.676L23.402 7.9478L23.3957 7.94188L23.3893 7.93606L22.7166 8.676ZM21.2606 7.92L21.0334 8.89384L21.0334 8.89384L21.2606 7.92ZM17.4806 7.976L17.891 8.88792L17.9096 8.87955L17.9278 8.87043L17.4806 7.976ZM17.5366 25L18.0185 24.1238L18.0155 24.1221L17.5366 25ZM19.9726 25.308H20.9726V24.308H19.9726V25.308ZM19.9726 26.204V27.204H20.9726V26.204H19.9726ZM12.0766 26.204H11.0766V27.204H12.0766V26.204ZM12.0766 25.308V24.308H11.0766V25.308H12.0766ZM14.3446 25.028L13.9235 24.1209L13.9147 24.1251L14.3446 25.028ZM14.6806 7.948L14.21 8.83035L14.2216 8.83654L14.2334 8.84243L14.6806 7.948ZM10.9566 7.892L10.7965 6.90489L10.7922 6.90561L10.9566 7.892ZM9.22061 8.676L9.85385 9.44996L9.86024 9.44472L9.86655 9.43939L9.22061 8.676ZM8.63261 9.292L9.40083 9.93218L9.41333 9.91718L9.42523 9.90171L8.63261 9.292ZM7.98861 10.188L7.15017 9.64301L7.14343 9.65337L7.13695 9.6639L7.98861 10.188ZM7.56861 10.916L8.43239 11.4199L8.44099 11.4051L8.44908 11.3901L7.56861 10.916ZM7.14861 11.644L6.7014 12.5384L7.54751 12.9615L8.01685 12.1401L7.14861 11.644ZM6.81261 11.504L6.29811 12.3615L6.39224 12.418L6.49638 12.4527L6.81261 11.504ZM6.50461 11.336L5.56287 10.9997L5.26484 11.8341L6.05739 12.2304L6.50461 11.336ZM7.34461 9.012L8.28373 9.35558V9.35558L7.34461 9.012ZM8.18461 6.688V5.688H7.47989L7.24287 6.35166L8.18461 6.688ZM23.8646 6.688L22.9204 7.01737C23.2012 7.82231 23.482 8.61797 23.7629 9.40434L24.7046 9.068L25.6464 8.73166C25.3672 7.95003 25.088 7.15902 24.8088 6.35863L23.8646 6.688ZM24.7046 9.068L23.7629 9.40434C24.038 10.1746 24.3043 10.9735 24.5618 11.8011L25.5166 11.504L26.4715 11.2069C26.2063 10.3545 25.9312 9.52937 25.6464 8.73166L24.7046 9.068ZM25.5166 11.504L25.2741 10.5339C25.0772 10.5831 24.8862 10.6462 24.7027 10.7249L25.0966 11.644L25.4905 12.5631C25.5683 12.5298 25.6573 12.4996 25.7591 12.4741L25.5166 11.504ZM25.0966 11.644L24.6494 10.7496C24.6155 10.7665 24.5561 10.7904 24.4621 10.8139L24.7046 11.784L24.9471 12.7541C25.1518 12.703 25.3537 12.6335 25.5438 12.5384L25.0966 11.644ZM24.7046 11.784L25.6157 11.3718C25.2464 10.5554 24.8728 9.86253 24.4908 9.31079L23.6686 9.88L22.8464 10.4492C23.1364 10.8681 23.4535 11.4446 23.7935 12.1962L24.7046 11.784ZM23.6686 9.88L24.5148 9.34719C24.1676 8.79573 23.7988 8.32131 23.402 7.9478L22.7166 8.676L22.0312 9.4042C22.2691 9.62802 22.5349 9.95627 22.8224 10.4128L23.6686 9.88ZM22.7166 8.676L23.3893 7.93606C22.8478 7.44384 22.2076 7.1141 21.4878 6.94616L21.2606 7.92L21.0334 8.89384C21.4336 8.98723 21.764 9.1615 22.0439 9.41594L22.7166 8.676ZM21.2606 7.92L21.4878 6.94616C20.858 6.79919 20.231 6.724 19.6086 6.724V7.724V8.724C20.0689 8.724 20.5433 8.77948 21.0334 8.89384L21.2606 7.92ZM19.6086 7.724V6.724C19.0458 6.724 18.5551 6.74561 18.147 6.79394C17.7617 6.83956 17.3601 6.9182 17.0334 7.08157L17.4806 7.976L17.9278 8.87043C17.9219 8.87337 17.9513 8.85856 18.037 8.8379C18.119 8.81811 18.2323 8.79782 18.3822 8.78006C18.6834 8.74439 19.0888 8.724 19.6086 8.724V7.724ZM17.4806 7.976L17.0702 7.06408C16.7007 7.23037 16.3914 7.49937 16.1865 7.86836C15.9888 8.22408 15.9206 8.61332 15.9206 8.984H16.9206H17.9206C17.9206 8.85068 17.9457 8.81992 17.9348 8.83964C17.9289 8.85028 17.9184 8.86433 17.9046 8.87679C17.8912 8.88879 17.8839 8.89111 17.891 8.88792L17.4806 7.976ZM16.9206 8.984H15.9206V23.852H16.9206H17.9206V8.984H16.9206ZM16.9206 23.852H15.9206C15.9206 24.6898 16.2691 25.4477 17.0578 25.8779L17.5366 25L18.0155 24.1221C17.9877 24.107 17.9744 24.0953 17.9688 24.0898C17.9636 24.0847 17.9599 24.0798 17.9558 24.0722C17.9481 24.0578 17.9206 23.9977 17.9206 23.852H16.9206ZM17.5366 25L17.0547 25.8762C17.412 26.0727 17.8627 26.1678 18.3002 26.2231C18.7634 26.2817 19.3247 26.308 19.9726 26.308V25.308V24.308C19.3698 24.308 18.8998 24.283 18.551 24.2389C18.3774 24.2169 18.2459 24.1917 18.1504 24.1669C18.0507 24.141 18.0151 24.1219 18.0185 24.1238L17.5366 25ZM19.9726 25.308H18.9726V26.204H19.9726H20.9726V25.308H19.9726ZM19.9726 26.204V25.204H12.0766V26.204V27.204H19.9726V26.204ZM12.0766 26.204H13.0766V25.308H12.0766H11.0766V26.204H12.0766ZM12.0766 25.308V26.308C12.6604 26.308 13.1734 26.2839 13.6061 26.2305C14.0231 26.179 14.4348 26.0926 14.7745 25.9309L14.3446 25.028L13.9147 24.1251C13.8624 24.15 13.7001 24.2037 13.3611 24.2455C13.0378 24.2854 12.6128 24.308 12.0766 24.308V25.308ZM14.3446 25.028L14.7657 25.935C15.1566 25.7535 15.5114 25.4866 15.7647 25.1067C16.0205 24.7229 16.1286 24.2898 16.1286 23.852H15.1286H14.1286C14.1286 23.9555 14.1061 23.9891 14.1006 23.9973C14.0925 24.0094 14.0553 24.0598 13.9235 24.121L14.3446 25.028ZM15.1286 23.852H16.1286V8.76H15.1286H14.1286V23.852H15.1286ZM15.1286 8.76H16.1286C16.1286 8.43942 16.0675 8.0977 15.8922 7.77992C15.7118 7.45288 15.443 7.21118 15.1278 7.05357L14.6806 7.948L14.2334 8.84243C14.2291 8.84029 14.2131 8.83142 14.1927 8.81229C14.1718 8.79268 14.1539 8.76946 14.141 8.74608C14.115 8.69897 14.1286 8.68858 14.1286 8.76H15.1286ZM14.6806 7.948L15.1512 7.06565C14.8516 6.90588 14.4971 6.83091 14.1736 6.78849C13.8304 6.74347 13.4264 6.724 12.9726 6.724V7.724V8.724C13.3775 8.724 13.6875 8.74186 13.9136 8.77151C14.1595 8.80376 14.2296 8.84079 14.21 8.83035L14.6806 7.948ZM12.9726 7.724V6.724C12.262 6.724 11.5364 6.78491 10.7965 6.90489L10.9566 7.892L11.1167 8.87911C11.7581 8.77509 12.3765 8.724 12.9726 8.724V7.724ZM10.9566 7.892L10.7922 6.90561C9.95574 7.04502 9.20737 7.37725 8.57467 7.91261L9.22061 8.676L9.86655 9.43939C10.2045 9.15341 10.6135 8.96298 11.121 8.87839L10.9566 7.892ZM9.22061 8.676L8.58737 7.90204C8.31455 8.12526 8.06634 8.38803 7.83999 8.68229L8.63261 9.292L9.42523 9.90171C9.57221 9.71064 9.716 9.56274 9.85385 9.44996L9.22061 8.676ZM8.63261 9.292L7.86439 8.65181C7.64299 8.91749 7.40441 9.25187 7.15017 9.64301L7.98861 10.188L8.82705 10.733C9.05814 10.3775 9.24889 10.1145 9.40083 9.93218L8.63261 9.292ZM7.98861 10.188L7.13695 9.6639C6.97787 9.9224 6.82823 10.1817 6.68814 10.4419L7.56861 10.916L8.44908 11.3901C8.57032 11.1649 8.70068 10.9389 8.84027 10.7121L7.98861 10.188ZM7.56861 10.916L6.70483 10.4121C6.57245 10.6391 6.43095 10.8843 6.28037 11.1479L7.14861 11.644L8.01685 12.1401C8.16494 11.881 8.30344 11.6409 8.43239 11.4199L7.56861 10.916ZM7.14861 11.644L7.59582 10.7496C7.44404 10.6737 7.28834 10.6085 7.12884 10.5553L6.81261 11.504L6.49638 12.4527C6.56088 12.4742 6.62918 12.5023 6.7014 12.5384L7.14861 11.644ZM6.81261 11.504L7.3271 10.6465C7.20886 10.5756 7.0834 10.5074 6.95183 10.4416L6.50461 11.336L6.05739 12.2304C6.14982 12.2766 6.22969 12.3204 6.29811 12.3615L6.81261 11.504ZM6.50461 11.336L7.44635 11.6723C7.72551 10.8907 8.00463 10.1185 8.28373 9.35558L7.34461 9.012L6.40549 8.66842C6.12459 9.43621 5.84371 10.2133 5.56287 10.9997L6.50461 11.336ZM7.34461 9.012L8.28373 9.35558C8.56463 8.58778 8.84551 7.8107 9.12635 7.02433L8.18461 6.688L7.24287 6.35166C6.96371 7.1333 6.68459 7.90555 6.40549 8.66842L7.34461 9.012ZM8.18461 6.688V7.688H23.8646V6.688V5.688H8.18461V6.688Z" fill="black" mask="url(#path-3-outside-1_1_18)"/>
</g>
<circle cx="16" cy="16" r="15.875" stroke="black" stroke-width="0.25"/>
<circle cx="16" cy="16" r="13.875" stroke="black" stroke-width="0.25"/>
<defs>
<filter id="filter0_di_1_18" x="-12" y="-12" width="56" height="56" filterUnits="userSpaceOnUse" color-interpolation-filters="sRGB">
<feFlood flood-opacity="0" result="BackgroundImageFix"/>
<feColorMatrix in="SourceAlpha" type="matrix" values="0 0 0 0 0 0 0 0 0 0 0 0 0 0 0 0 0 0 127 0" result="hardAlpha"/>
<feOffset/>
<feGaussianBlur stdDeviation="6"/>
<feComposite in2="hardAlpha" operator="out"/>
<feColorMatrix type="matrix" values="0 0 0 0 0.65098 0 0 0 0 0.890196 0 0 0 0 0.631373 0 0 0 0.3 0"/>
<feBlend mode="normal" in2="BackgroundImageFix" result="effect1_dropShadow_1_18"/>
<feBlend mode="normal" in="SourceGraphic" in2="effect1_dropShadow_1_18" result="shape"/>
<feColorMatrix in="SourceAlpha" type="matrix" values="0 0 0 0 0 0 0 0 0 0 0 0 0 0 0 0 0 0 127 0" result="hardAlpha"/>
<feOffset dy="2"/>
<feGaussianBlur stdDeviation="2"/>
<feComposite in2="hardAlpha" operator="arithmetic" k2="-1" k3="1"/>
<feColorMatrix type="matrix" values="0 0 0 0 0.117647 0 0 0 0 0.117647 0 0 0 0 0.180392 0 0 0 0.2 0"/>
<feBlend mode="normal" in2="shape" result="effect2_innerShadow_1_18"/>
</filter>
<filter id="filter1_df_1_18" x="1.26483" y="4.688" width="29.521" height="30.516" filterUnits="userSpaceOnUse" color-interpolation-filters="sRGB">
<feFlood flood-opacity="0" result="BackgroundImageFix"/>
<feColorMatrix in="SourceAlpha" type="matrix" values="0 0 0 0 0 0 0 0 0 0 0 0 0 0 0 0 0 0 127 0" result="hardAlpha"/>
<feOffset dy="4"/>
<feGaussianBlur stdDeviation="2"/>
<feComposite in2="hardAlpha" operator="out"/>
<feColorMatrix type="matrix" values="0 0 0 0 0 0 0 0 0 0 0 0 0 0 0 0 0 0 0.25 0"/>
<feBlend mode="normal" in2="BackgroundImageFix" result="effect1_dropShadow_1_18"/>
<feBlend mode="normal" in="SourceGraphic" in2="effect1_dropShadow_1_18" result="shape"/>
<feGaussianBlur stdDeviation="0.5" result="effect2_foregroundBlur_1_18"/>
</filter>
<linearGradient id="paint0_linear_1_18" x1="16" y1="0" x2="16" y2="32" gradientUnits="userSpaceOnUse">
<stop stop-color="#A6E3A1"/>
<stop offset="1" stop-color="#94E2D5"/>
</linearGradient>
<linearGradient id="paint1_linear_1_18" x1="16" y1="1" x2="16" y2="33" gradientUnits="userSpaceOnUse">
<stop stop-color="#A6E3A1"/>
<stop offset="1" stop-color="#94E2D5"/>
</linearGradient>
</defs>
</svg>
