<svg width="48" height="48" viewBox="0 0 48 48" fill="none" xmlns="http://www.w3.org/2000/svg">
<g filter="url(#filter0_di_1_23)">
<circle cx="24" cy="23" r="24" fill="black" fill-opacity="0.25" shape-rendering="crispEdges"/>
<circle cx="24" cy="23" r="22.5" stroke="url(#paint0_linear_1_23)" stroke-width="3" shape-rendering="crispEdges"/>
<circle cx="24" cy="23" r="22.5" stroke="black" stroke-opacity="0.18" stroke-width="3" shape-rendering="crispEdges"/>
</g>
<g filter="url(#filter1_df_1_23)">
<mask id="path-3-outside-1_1_23" maskUnits="userSpaceOnUse" x="8" y="8" width="32" height="32" fill="black">
<rect fill="white" x="8" y="8" width="32" height="32"/>
<path d="M35.7969 9.532C36.2169 10.736 36.6369 11.926 37.0569 13.102C37.4769 14.278 37.8829 15.496 38.2749 16.756C38.0509 16.812 37.8409 16.882 37.6449 16.966C37.4769 17.05 37.2809 17.12 37.0569 17.176C36.5249 16 36.0069 15.048 35.5029 14.32C35.0269 13.564 34.5509 12.962 34.0749 12.514C33.4589 11.954 32.7309 11.576 31.8909 11.38C31.0509 11.184 30.2249 11.086 29.4129 11.086C27.7889 11.086 26.7249 11.212 26.2209 11.464C25.6609 11.716 25.3809 12.22 25.3809 12.976V35.278C25.3809 36.09 25.6889 36.664 26.3049 37C26.8649 37.308 28.0829 37.462 29.9589 37.462V38.806H18.1149V37.462C19.7949 37.462 20.9289 37.322 21.5169 37.042C22.3009 36.678 22.6929 36.09 22.6929 35.278V12.64C22.6929 12.052 22.4689 11.646 22.0209 11.422C21.6009 11.198 20.7469 11.086 19.4589 11.086C18.4789 11.086 17.4709 11.17 16.4349 11.338C15.4269 11.506 14.5589 11.898 13.8309 12.514C13.5229 12.766 13.2289 13.074 12.9489 13.438C12.6689 13.774 12.3469 14.222 11.9829 14.782C11.7589 15.146 11.5489 15.51 11.3529 15.874C11.1569 16.21 10.9469 16.574 10.7229 16.966C10.5549 16.882 10.3869 16.812 10.2189 16.756C10.0789 16.672 9.92491 16.588 9.75691 16.504C10.1769 15.328 10.5969 14.166 11.0169 13.018C11.4369 11.87 11.8569 10.708 12.2769 9.532H35.7969Z"/>
</mask>
<path d="M35.7969 9.532C36.2169 10.736 36.6369 11.926 37.0569 13.102C37.4769 14.278 37.8829 15.496 38.2749 16.756C38.0509 16.812 37.8409 16.882 37.6449 16.966C37.4769 17.05 37.2809 17.12 37.0569 17.176C36.5249 16 36.0069 15.048 35.5029 14.32C35.0269 13.564 34.5509 12.962 34.0749 12.514C33.4589 11.954 32.7309 11.576 31.8909 11.38C31.0509 11.184 30.2249 11.086 29.4129 11.086C27.7889 11.086 26.7249 11.212 26.2209 11.464C25.6609 11.716 25.3809 12.22 25.3809 12.976V35.278C25.3809 36.09 25.6889 36.664 26.3049 37C26.8649 37.308 28.0829 37.462 29.9589 37.462V38.806H18.1149V37.462C19.7949 37.462 20.9289 37.322 21.5169 37.042C22.3009 36.678 22.6929 36.09 22.6929 35.278V12.64C22.6929 12.052 22.4689 11.646 22.0209 11.422C21.6009 11.198 20.7469 11.086 19.4589 11.086C18.4789 11.086 17.4709 11.17 16.4349 11.338C15.4269 11.506 14.5589 11.898 13.8309 12.514C13.5229 12.766 13.2289 13.074 12.9489 13.438C12.6689 13.774 12.3469 14.222 11.9829 14.782C11.7589 15.146 11.5489 15.51 11.3529 15.874C11.1569 16.21 10.9469 16.574 10.7229 16.966C10.5549 16.882 10.3869 16.812 10.2189 16.756C10.0789 16.672 9.92491 16.588 9.75691 16.504C10.1769 15.328 10.5969 14.166 11.0169 13.018C11.4369 11.87 11.8569 10.708 12.2769 9.532H35.7969Z" fill="url(#paint1_linear_1_23)"/>
<path d="M35.7969 9.532L36.7411 9.20263L36.5072 8.532H35.7969V9.532ZM38.2749 16.756L38.5175 17.7261L39.5442 17.4695L39.2298 16.4589L38.2749 16.756ZM37.6449 16.966L37.251 16.0469L37.224 16.0584L37.1977 16.0716L37.6449 16.966ZM37.0569 17.176L36.1458 17.5882L36.4898 18.3486L37.2994 18.1461L37.0569 17.176ZM35.5029 14.32L34.6567 14.8528L34.6683 14.8713L34.6807 14.8892L35.5029 14.32ZM34.0749 12.514L34.7603 11.7858L34.754 11.7799L34.7476 11.7741L34.0749 12.514ZM31.8909 11.38L31.6637 12.3538H31.6637L31.8909 11.38ZM26.2209 11.464L26.6313 12.3759L26.6499 12.3675L26.6681 12.3584L26.2209 11.464ZM26.3049 37L26.7868 36.1238L26.7838 36.1221L26.3049 37ZM29.9589 37.462H30.9589V36.462H29.9589V37.462ZM29.9589 38.806V39.806H30.9589V38.806H29.9589ZM18.1149 38.806H17.1149V39.806H18.1149V38.806ZM18.1149 37.462V36.462H17.1149V37.462H18.1149ZM21.5169 37.042L21.0958 36.1349L21.087 36.1391L21.5169 37.042ZM22.0209 11.422L21.5503 12.3044L21.5619 12.3105L21.5737 12.3164L22.0209 11.422ZM16.4349 11.338L16.2748 10.3509L16.2705 10.3516L16.4349 11.338ZM13.8309 12.514L14.4642 13.288L14.4705 13.2827L14.4769 13.2774L13.8309 12.514ZM12.9489 13.438L13.7171 14.0782L13.7296 14.0632L13.7415 14.0477L12.9489 13.438ZM11.9829 14.782L11.1445 14.237L11.1377 14.2474L11.1313 14.2579L11.9829 14.782ZM11.3529 15.874L12.2167 16.3779L12.2253 16.3631L12.2334 16.3481L11.3529 15.874ZM10.7229 16.966L10.2757 17.8604L11.1218 18.2835L11.5912 17.4621L10.7229 16.966ZM10.2189 16.756L9.70442 17.6135L9.79855 17.67L9.90269 17.7047L10.2189 16.756ZM9.75691 16.504L8.81517 16.1677L8.51714 17.0021L9.3097 17.3984L9.75691 16.504ZM11.0169 13.018L11.956 13.3616H11.956L11.0169 13.018ZM12.2769 9.532V8.532H11.5722L11.3352 9.19566L12.2769 9.532ZM35.7969 9.532L34.8527 9.86137C35.2735 11.0676 35.6943 12.26 36.1152 13.4383L37.0569 13.102L37.9987 12.7657C37.5795 11.592 37.1603 10.4044 36.7411 9.20263L35.7969 9.532ZM37.0569 13.102L36.1152 13.4383C36.5303 14.6006 36.9319 15.8055 37.3201 17.0531L38.2749 16.756L39.2298 16.4589C38.8339 15.1865 38.4235 13.9554 37.9987 12.7657L37.0569 13.102ZM38.2749 16.756L38.0324 15.7859C37.7609 15.8537 37.4999 15.9402 37.251 16.0469L37.6449 16.966L38.0388 17.8851C38.182 17.8238 38.341 17.7703 38.5175 17.7261L38.2749 16.756ZM37.6449 16.966L37.1977 16.0716C37.1078 16.1165 36.983 16.1637 36.8144 16.2059L37.0569 17.176L37.2994 18.1461C37.5788 18.0763 37.846 17.9835 38.0921 17.8604L37.6449 16.966ZM37.0569 17.176L37.968 16.7638C37.4214 15.5554 36.8751 14.5452 36.3251 13.7508L35.5029 14.32L34.6807 14.8892C35.1388 15.5508 35.6285 16.4446 36.1458 17.5882L37.0569 17.176ZM35.5029 14.32L36.3491 13.7872C35.8433 12.9837 35.3158 12.3086 34.7603 11.7858L34.0749 12.514L33.3896 13.2422C33.786 13.6154 34.2106 14.1443 34.6567 14.8528L35.5029 14.32ZM34.0749 12.514L34.7476 11.7741C34.0008 11.0952 33.1179 10.6394 32.1181 10.4062L31.8909 11.38L31.6637 12.3538C32.3439 12.5126 32.917 12.8128 33.4022 13.2539L34.0749 12.514ZM31.8909 11.38L32.1181 10.4062C31.2083 10.1939 30.306 10.086 29.4129 10.086V11.086V12.086C30.1438 12.086 30.8936 12.1741 31.6637 12.3538L31.8909 11.38ZM29.4129 11.086V10.086C28.5794 10.086 27.8647 10.1181 27.2793 10.1874C26.7167 10.2541 26.1845 10.3642 25.7737 10.5696L26.2209 11.464L26.6681 12.3584C26.7614 12.3118 27.0131 12.2329 27.5145 12.1736C27.9931 12.1169 28.6224 12.086 29.4129 12.086V11.086ZM26.2209 11.464L25.8105 10.5521C25.3477 10.7604 24.9684 11.0924 24.7168 11.5454C24.4725 11.9851 24.3809 12.4793 24.3809 12.976H25.3809H26.3809C26.3809 12.7167 26.4294 12.5809 26.4651 12.5166C26.4934 12.4656 26.5342 12.4196 26.6313 12.3759L26.2209 11.464ZM25.3809 12.976H24.3809V35.278H25.3809H26.3809V12.976H25.3809ZM25.3809 35.278H24.3809C24.3809 36.3865 24.8321 37.3357 25.8261 37.8779L26.3049 37L26.7838 36.1221C26.5457 35.9923 26.3809 35.7935 26.3809 35.278H25.3809ZM26.3049 37L25.823 37.8762C26.2736 38.1241 26.8725 38.2576 27.513 38.3386C28.1792 38.4228 28.9984 38.462 29.9589 38.462V37.462V36.462C29.0434 36.462 28.3156 36.4242 27.7639 36.3544C27.1863 36.2814 26.8962 36.1839 26.7868 36.1238L26.3049 37ZM29.9589 37.462H28.9589V38.806H29.9589H30.9589V37.462H29.9589ZM29.9589 38.806V37.806H18.1149V38.806V39.806H29.9589V38.806ZM18.1149 38.806H19.1149V37.462H18.1149H17.1149V38.806H18.1149ZM18.1149 37.462V38.462C18.9787 38.462 19.7262 38.4262 20.3479 38.3495C20.9539 38.2747 21.5091 38.1533 21.9468 37.9449L21.5169 37.042L21.087 36.1391C20.9367 36.2107 20.6309 36.2993 20.1029 36.3645C19.5906 36.4278 18.9311 36.462 18.1149 36.462V37.462ZM21.5169 37.042L21.938 37.949C22.4596 37.7069 22.9124 37.3606 23.231 36.8827C23.5521 36.4009 23.6929 35.8512 23.6929 35.278H22.6929H21.6929C21.6929 35.5168 21.6377 35.6671 21.5669 35.7733C21.4934 35.8834 21.3583 36.0131 21.0958 36.135L21.5169 37.042ZM22.6929 35.278H23.6929V12.64H22.6929H21.6929V35.278H22.6929ZM22.6929 12.64H23.6929C23.6929 12.2214 23.6132 11.7969 23.4005 11.4114C23.1827 11.0167 22.858 10.7225 22.4681 10.5276L22.0209 11.422L21.5737 12.3164C21.6318 12.3455 21.6431 12.3663 21.6493 12.3776C21.6607 12.3981 21.6929 12.4706 21.6929 12.64H22.6929ZM22.0209 11.422L22.4915 10.5396C22.1219 10.3425 21.6612 10.2396 21.1954 10.1785C20.7099 10.1148 20.1274 10.086 19.4589 10.086V11.086V12.086C20.0785 12.086 20.567 12.1132 20.9354 12.1615C21.3236 12.2124 21.4999 12.2775 21.5503 12.3044L22.0209 11.422ZM19.4589 11.086V10.086C18.4217 10.086 17.3601 10.1749 16.2748 10.3509L16.4349 11.338L16.595 12.3251C17.5818 12.1651 18.5362 12.086 19.4589 12.086V11.086ZM16.4349 11.338L16.2705 10.3516C15.098 10.547 14.0603 11.0099 13.185 11.7506L13.8309 12.514L14.4769 13.2774C15.0575 12.7861 15.7558 12.465 16.5993 12.3244L16.4349 11.338ZM13.8309 12.514L13.1977 11.74C12.8222 12.0473 12.476 12.4127 12.1563 12.8283L12.9489 13.438L13.7415 14.0477C13.9818 13.7353 14.2236 13.4847 14.4642 13.288L13.8309 12.514ZM12.9489 13.438L12.1807 12.7978C11.866 13.1755 11.52 13.6592 11.1445 14.237L11.9829 14.782L12.8214 15.327C13.1738 14.7848 13.4719 14.3725 13.7171 14.0782L12.9489 13.438ZM11.9829 14.782L11.1313 14.2579C10.8975 14.6377 10.6779 15.0184 10.4724 15.3999L11.3529 15.874L12.2334 16.3481C12.42 16.0016 12.6203 15.6543 12.8346 15.3061L11.9829 14.782ZM11.3529 15.874L10.4891 15.3701C10.2914 15.7091 10.0799 16.0757 9.85467 16.4699L10.7229 16.966L11.5912 17.4621C11.8139 17.0723 12.0224 16.7109 12.2167 16.3779L11.3529 15.874ZM10.7229 16.966L11.1701 16.0716C10.9623 15.9677 10.7506 15.8792 10.5351 15.8073L10.2189 16.756L9.90269 17.7047C10.0232 17.7448 10.1475 17.7963 10.2757 17.8604L10.7229 16.966ZM10.2189 16.756L10.7334 15.8985C10.5685 15.7996 10.3917 15.7034 10.2041 15.6096L9.75691 16.504L9.3097 17.3984C9.45813 17.4726 9.58933 17.5444 9.70442 17.6135L10.2189 16.756ZM9.75691 16.504L10.6987 16.8403C11.1178 15.6667 11.5369 14.5071 11.956 13.3616L11.0169 13.018L10.0778 12.6744C9.65689 13.8249 9.23602 14.9893 8.81517 16.1677L9.75691 16.504ZM11.0169 13.018L11.956 13.3616C12.3769 12.2111 12.7978 11.0467 13.2187 9.86833L12.2769 9.532L11.3352 9.19566C10.916 10.3693 10.4969 11.5289 10.0778 12.6744L11.0169 13.018ZM12.2769 9.532V10.532H35.7969V9.532V8.532H12.2769V9.532Z" fill="black" mask="url(#path-3-outside-1_1_23)"/>
</g>
<circle cx="24" cy="23" r="23.825" stroke="black" stroke-width="0.35"/>
<circle cx="24" cy="23" r="20.825" stroke="black" stroke-width="0.35"/>
<defs>
<filter id="filter0_di_1_23" x="-12" y="-13" width="72" height="72" filterUnits="userSpaceOnUse" color-interpolation-filters="sRGB">
<feFlood flood-opacity="0" result="BackgroundImageFix"/>
<feColorMatrix in="SourceAlpha" type="matrix" values="0 0 0 0 0 0 0 0 0 0 0 0 0 0 0 0 0 0 127 0" result="hardAlpha"/>
<feOffset/>
<feGaussianBlur stdDeviation="6"/>
<feComposite in2="hardAlpha" operator="out"/>
<feColorMatrix type="matrix" values="0 0 0 0 0.65098 0 0 0 0 0.890196 0 0 0 0 0.631373 0 0 0 0.3 0"/>
<feBlend mode="normal" in2="BackgroundImageFix" result="effect1_dropShadow_1_23"/>
<feBlend mode="normal" in="SourceGraphic" in2="effect1_dropShadow_1_23" result="shape"/>
<feColorMatrix in="SourceAlpha" type="matrix" values="0 0 0 0 0 0 0 0 0 0 0 0 0 0 0 0 0 0 127 0" result="hardAlpha"/>
<feOffset dy="2"/>
<feGaussianBlur stdDeviation="2"/>
<feComposite in2="hardAlpha" operator="arithmetic" k2="-1" k3="1"/>
<feColorMatrix type="matrix" values="0 0 0 0 0.117647 0 0 0 0 0.117647 0 0 0 0 0.180392 0 0 0 0.2 0"/>
<feBlend mode="normal" in2="shape" result="effect2_innerShadow_1_23"/>
</filter>
<filter id="filter1_df_1_23" x="4.51715" y="7.532" width="39.027" height="40.274" filterUnits="userSpaceOnUse" color-interpolation-filters="sRGB">
<feFlood flood-opacity="0" result="BackgroundImageFix"/>
<feColorMatrix in="SourceAlpha" type="matrix" values="0 0 0 0 0 0 0 0 0 0 0 0 0 0 0 0 0 0 127 0" result="hardAlpha"/>
<feOffset dy="4"/>
<feGaussianBlur stdDeviation="2"/>
<feComposite in2="hardAlpha" operator="out"/>
<feColorMatrix type="matrix" values="0 0 0 0 0 0 0 0 0 0 0 0 0 0 0 0 0 0 0.25 0"/>
<feBlend mode="normal" in2="BackgroundImageFix" result="effect1_dropShadow_1_23"/>
<feBlend mode="normal" in="SourceGraphic" in2="effect1_dropShadow_1_23" result="shape"/>
<feGaussianBlur stdDeviation="0.5" result="effect2_foregroundBlur_1_23"/>
</filter>
<linearGradient id="paint0_linear_1_23" x1="24" y1="-1" x2="24" y2="47" gradientUnits="userSpaceOnUse">
<stop stop-color="#A6E3A1"/>
<stop offset="1" stop-color="#94E2D5"/>
</linearGradient>
<linearGradient id="paint1_linear_1_23" x1="24" y1="3" x2="24" y2="45" gradientUnits="userSpaceOnUse">
<stop stop-color="#A6E3A1"/>
<stop offset="1" stop-color="#94E2D5"/>
</linearGradient>
</defs>
</svg>
