<svg width="512" height="512" viewBox="0 0 512 512" fill="none" xmlns="http://www.w3.org/2000/svg">
<g clip-path="url(#clip0_1_171)">
<g filter="url(#filter0_di_1_171)">
<circle cx="256" cy="256" r="256" fill="black" fill-opacity="0.25" shape-rendering="crispEdges"/>
<circle cx="256" cy="256" r="244" stroke="url(#paint0_linear_1_171)" stroke-width="24" shape-rendering="crispEdges"/>
<circle cx="256" cy="256" r="244" stroke="black" stroke-opacity="0.18" stroke-width="24" shape-rendering="crispEdges"/>
</g>
<g filter="url(#filter1_df_1_171)">
<mask id="path-3-outside-1_1_171" maskUnits="userSpaceOnUse" x="86" y="101" width="340" height="349" fill="black">
<rect fill="white" x="86" y="101" width="340" height="349"/>
<path d="M395.316 102.616C400.276 116.835 405.236 130.888 410.196 144.776C415.156 158.664 419.951 173.048 424.58 187.928C421.935 188.589 419.455 189.416 417.14 190.408C415.156 191.4 412.841 192.227 410.196 192.888C403.913 179 397.796 167.757 391.844 159.16C386.223 150.232 380.601 143.123 374.98 137.832C367.705 131.219 359.108 126.755 349.188 124.44C339.268 122.125 329.513 120.968 319.924 120.968C300.745 120.968 288.18 122.456 282.228 125.432C275.615 128.408 272.308 134.36 272.308 143.288V406.664C272.308 416.253 275.945 423.032 283.22 427C289.833 430.637 304.217 432.456 326.372 432.456V448.328H186.5V432.456C206.34 432.456 219.732 430.803 226.676 427.496C235.935 423.197 240.564 416.253 240.564 406.664V139.32C240.564 132.376 237.919 127.581 232.628 124.936C227.668 122.291 217.583 120.968 202.372 120.968C190.799 120.968 178.895 121.96 166.66 123.944C154.756 125.928 144.505 130.557 135.908 137.832C132.271 140.808 128.799 144.445 125.492 148.744C122.185 152.712 118.383 158.003 114.084 164.616C111.439 168.915 108.959 173.213 106.644 177.512C104.329 181.48 101.849 185.779 99.2039 190.408C97.2199 189.416 95.2359 188.589 93.2519 187.928C91.5986 186.936 89.7799 185.944 87.7959 184.952C92.7559 171.064 97.7159 157.341 102.676 143.784C107.636 130.227 112.596 116.504 117.556 102.616H395.316Z"/>
</mask>
<path d="M395.316 102.616C400.276 116.835 405.236 130.888 410.196 144.776C415.156 158.664 419.951 173.048 424.58 187.928C421.935 188.589 419.455 189.416 417.14 190.408C415.156 191.4 412.841 192.227 410.196 192.888C403.913 179 397.796 167.757 391.844 159.16C386.223 150.232 380.601 143.123 374.98 137.832C367.705 131.219 359.108 126.755 349.188 124.44C339.268 122.125 329.513 120.968 319.924 120.968C300.745 120.968 288.18 122.456 282.228 125.432C275.615 128.408 272.308 134.36 272.308 143.288V406.664C272.308 416.253 275.945 423.032 283.22 427C289.833 430.637 304.217 432.456 326.372 432.456V448.328H186.5V432.456C206.34 432.456 219.732 430.803 226.676 427.496C235.935 423.197 240.564 416.253 240.564 406.664V139.32C240.564 132.376 237.919 127.581 232.628 124.936C227.668 122.291 217.583 120.968 202.372 120.968C190.799 120.968 178.895 121.96 166.66 123.944C154.756 125.928 144.505 130.557 135.908 137.832C132.271 140.808 128.799 144.445 125.492 148.744C122.185 152.712 118.383 158.003 114.084 164.616C111.439 168.915 108.959 173.213 106.644 177.512C104.329 181.48 101.849 185.779 99.2039 190.408C97.2199 189.416 95.2359 188.589 93.2519 187.928C91.5986 186.936 89.7799 185.944 87.7959 184.952C92.7559 171.064 97.7159 157.341 102.676 143.784C107.636 130.227 112.596 116.504 117.556 102.616H395.316Z" fill="url(#paint1_linear_1_171)"/>
<path d="M395.316 102.616L396.26 102.287L396.026 101.616H395.316V102.616ZM424.58 187.928L424.822 188.898L425.849 188.641L425.535 187.631L424.58 187.928ZM417.14 190.408L416.746 189.489L416.719 189.5L416.693 189.514L417.14 190.408ZM410.196 192.888L409.285 193.3L409.629 194.061L410.438 193.858L410.196 192.888ZM391.844 159.16L390.998 159.693L391.009 159.711L391.022 159.729L391.844 159.16ZM374.98 137.832L375.665 137.104L375.659 137.098L375.653 137.092L374.98 137.832ZM349.188 124.44L348.961 125.414H348.961L349.188 124.44ZM282.228 125.432L282.638 126.344L282.657 126.336L282.675 126.326L282.228 125.432ZM283.22 427L283.702 426.124L283.699 426.122L283.22 427ZM326.372 432.456H327.372V431.456H326.372V432.456ZM326.372 448.328V449.328H327.372V448.328H326.372ZM186.5 448.328H185.5V449.328H186.5V448.328ZM186.5 432.456V431.456H185.5V432.456H186.5ZM226.676 427.496L226.255 426.589L226.246 426.593L226.676 427.496ZM232.628 124.936L232.157 125.818L232.169 125.825L232.181 125.83L232.628 124.936ZM166.66 123.944L166.5 122.957L166.496 122.958L166.66 123.944ZM135.908 137.832L136.541 138.606L136.548 138.601L136.554 138.595L135.908 137.832ZM125.492 148.744L126.26 149.384L126.273 149.369L126.285 149.354L125.492 148.744ZM114.084 164.616L113.245 164.071L113.239 164.081L113.232 164.092L114.084 164.616ZM106.644 177.512L107.508 178.016L107.516 178.001L107.524 177.986L106.644 177.512ZM99.2039 190.408L98.7567 191.302L99.6028 191.725L100.072 190.904L99.2039 190.408ZM93.2519 187.928L92.7374 188.785L92.8316 188.842L92.9357 188.877L93.2519 187.928ZM87.7959 184.952L86.8542 184.616L86.5562 185.45L87.3487 185.846L87.7959 184.952ZM102.676 143.784L103.615 144.128V144.128L102.676 143.784ZM117.556 102.616V101.616H116.851L116.614 102.28L117.556 102.616ZM395.316 102.616L394.372 102.945C399.333 117.166 404.293 131.222 409.254 145.112L410.196 144.776L411.138 144.44C406.179 130.554 401.219 116.503 396.26 102.287L395.316 102.616ZM410.196 144.776L409.254 145.112C414.209 158.987 419 173.357 423.625 188.225L424.58 187.928L425.535 187.631C420.902 172.738 416.103 158.341 411.138 144.44L410.196 144.776ZM424.58 187.928L424.337 186.958C421.645 187.631 419.114 188.474 416.746 189.489L417.14 190.408L417.534 191.327C419.796 190.358 422.225 189.548 424.822 188.898L424.58 187.928ZM417.14 190.408L416.693 189.514C414.787 190.467 412.543 191.27 409.953 191.918L410.196 192.888L410.438 193.858C413.139 193.183 415.525 192.333 417.587 191.302L417.14 190.408ZM410.196 192.888L411.107 192.476C404.81 178.555 398.664 167.255 392.666 158.591L391.844 159.16L391.022 159.729C396.928 168.26 403.017 179.445 409.285 193.3L410.196 192.888ZM391.844 159.16L392.69 158.627C387.039 149.652 381.366 142.469 375.665 137.104L374.98 137.832L374.295 138.56C379.836 143.776 385.406 150.812 390.998 159.693L391.844 159.16ZM374.98 137.832L375.653 137.092C368.247 130.36 359.495 125.818 349.415 123.466L349.188 124.44L348.961 125.414C358.721 127.691 367.163 132.077 374.307 138.572L374.98 137.832ZM349.188 124.44L349.415 123.466C339.425 121.135 329.594 119.968 319.924 119.968V120.968V121.968C329.432 121.968 339.111 123.115 348.961 125.414L349.188 124.44ZM319.924 120.968V119.968C310.313 119.968 302.334 120.341 295.998 121.091C289.685 121.839 284.915 122.97 281.781 124.538L282.228 125.432L282.675 126.326C285.492 124.918 289.982 123.817 296.234 123.077C302.463 122.339 310.356 121.968 319.924 121.968V120.968ZM282.228 125.432L281.818 124.52C278.328 126.09 275.679 128.465 273.914 131.642C272.156 134.806 271.308 138.705 271.308 143.288H272.308H273.308C273.308 138.943 274.113 135.402 275.662 132.614C277.204 129.839 279.515 127.75 282.638 126.344L282.228 125.432ZM272.308 143.288H271.308V406.664H272.308H273.308V143.288H272.308ZM272.308 406.664H271.308C271.308 416.55 275.088 423.704 282.741 427.878L283.22 427L283.699 426.122C276.802 422.36 273.308 415.957 273.308 406.664H272.308ZM283.22 427L282.738 427.876C286.215 429.789 291.619 431.171 298.842 432.084C306.092 433.001 315.272 433.456 326.372 433.456V432.456V431.456C315.317 431.456 306.228 431.002 299.093 430.1C291.933 429.195 286.838 427.849 283.702 426.124L283.22 427ZM326.372 432.456H325.372V448.328H326.372H327.372V432.456H326.372ZM326.372 448.328V447.328H186.5V448.328V449.328H326.372V448.328ZM186.5 448.328H187.5V432.456H186.5H185.5V448.328H186.5ZM186.5 432.456V433.456C196.444 433.456 204.796 433.042 211.546 432.208C218.281 431.377 223.49 430.121 227.106 428.399L226.676 427.496L226.246 426.593C222.918 428.178 217.958 429.402 211.301 430.224C204.66 431.043 196.396 431.456 186.5 431.456V432.456ZM226.676 427.496L227.097 428.403C231.856 426.194 235.487 423.275 237.924 419.619C240.364 415.959 241.564 411.626 241.564 406.664H240.564H239.564C239.564 411.292 238.449 415.225 236.26 418.509C234.068 421.797 230.755 424.5 226.255 426.589L226.676 427.496ZM240.564 406.664H241.564V139.32H240.564H239.564V406.664H240.564ZM240.564 139.32H241.564C241.564 135.723 240.879 132.613 239.456 130.033C238.027 127.444 235.886 125.447 233.075 124.042L232.628 124.936L232.181 125.83C234.66 127.07 236.487 128.793 237.704 130.999C238.926 133.214 239.564 135.973 239.564 139.32H240.564ZM232.628 124.936L233.099 124.054C230.459 122.646 226.555 121.635 221.474 120.968C216.373 120.299 210.002 119.968 202.372 119.968V120.968V121.968C209.953 121.968 216.23 122.298 221.214 122.951C226.218 123.608 229.837 124.581 232.157 125.818L232.628 124.936ZM202.372 120.968V119.968C190.741 119.968 178.784 120.965 166.5 122.957L166.66 123.944L166.82 124.931C179.005 122.955 190.856 121.968 202.372 121.968V120.968ZM166.66 123.944L166.496 122.958C154.427 124.969 144.007 129.669 135.262 137.069L135.908 137.832L136.554 138.595C145.004 131.445 155.085 126.887 166.824 124.93L166.66 123.944ZM135.908 137.832L135.275 137.058C131.57 140.089 128.046 143.784 124.699 148.134L125.492 148.744L126.285 149.354C129.552 145.107 132.971 141.527 136.541 138.606L135.908 137.832ZM125.492 148.744L124.724 148.104C121.382 152.113 117.556 157.44 113.245 164.071L114.084 164.616L114.922 165.161C119.209 158.565 122.988 153.31 126.26 149.384L125.492 148.744ZM114.084 164.616L113.232 164.092C110.577 168.406 108.088 172.722 105.763 177.038L106.644 177.512L107.524 177.986C109.83 173.705 112.3 169.423 114.936 165.14L114.084 164.616ZM106.644 177.512L105.78 177.008C103.464 180.979 100.982 185.28 98.3357 189.912L99.2039 190.408L100.072 190.904C102.716 186.277 105.195 181.981 107.508 178.016L106.644 177.512ZM99.2039 190.408L99.6512 189.514C97.6274 188.502 95.5997 187.656 93.5682 186.979L93.2519 187.928L92.9357 188.877C94.8722 189.522 96.8125 190.33 98.7567 191.302L99.2039 190.408ZM93.2519 187.928L93.7664 187.07C92.0882 186.064 90.2467 185.059 88.2432 184.058L87.7959 184.952L87.3487 185.846C89.3131 186.829 91.109 187.808 92.7374 188.785L93.2519 187.928ZM87.7959 184.952L88.7377 185.288C93.6968 171.403 98.656 157.682 103.615 144.128L102.676 143.784L101.737 143.44C96.7759 157 91.815 170.725 86.8542 184.616L87.7959 184.952ZM102.676 143.784L103.615 144.128C108.576 130.568 113.537 116.843 118.498 102.952L117.556 102.616L116.614 102.28C111.655 116.165 106.696 129.886 101.737 143.44L102.676 143.784ZM117.556 102.616V103.616H395.316V102.616V101.616H117.556V102.616Z" fill="black" mask="url(#path-3-outside-1_1_171)"/>
</g>
<circle cx="256" cy="256" r="253" stroke="black" stroke-width="6"/>
<circle cx="256" cy="256" r="231" stroke="black" stroke-width="6"/>
</g>
<defs>
<filter id="filter0_di_1_171" x="-12" y="-12" width="536" height="536" filterUnits="userSpaceOnUse" color-interpolation-filters="sRGB">
<feFlood flood-opacity="0" result="BackgroundImageFix"/>
<feColorMatrix in="SourceAlpha" type="matrix" values="0 0 0 0 0 0 0 0 0 0 0 0 0 0 0 0 0 0 127 0" result="hardAlpha"/>
<feOffset/>
<feGaussianBlur stdDeviation="6"/>
<feComposite in2="hardAlpha" operator="out"/>
<feColorMatrix type="matrix" values="0 0 0 0 0.65098 0 0 0 0 0.890196 0 0 0 0 0.631373 0 0 0 0.3 0"/>
<feBlend mode="normal" in2="BackgroundImageFix" result="effect1_dropShadow_1_171"/>
<feBlend mode="normal" in="SourceGraphic" in2="effect1_dropShadow_1_171" result="shape"/>
<feColorMatrix in="SourceAlpha" type="matrix" values="0 0 0 0 0 0 0 0 0 0 0 0 0 0 0 0 0 0 127 0" result="hardAlpha"/>
<feOffset dy="2"/>
<feGaussianBlur stdDeviation="2"/>
<feComposite in2="hardAlpha" operator="arithmetic" k2="-1" k3="1"/>
<feColorMatrix type="matrix" values="0 0 0 0 0.117647 0 0 0 0 0.117647 0 0 0 0 0.180392 0 0 0 0.2 0"/>
<feBlend mode="normal" in2="shape" result="effect2_innerShadow_1_171"/>
</filter>
<filter id="filter1_df_1_171" x="82.5562" y="100.616" width="347.293" height="356.712" filterUnits="userSpaceOnUse" color-interpolation-filters="sRGB">
<feFlood flood-opacity="0" result="BackgroundImageFix"/>
<feColorMatrix in="SourceAlpha" type="matrix" values="0 0 0 0 0 0 0 0 0 0 0 0 0 0 0 0 0 0 127 0" result="hardAlpha"/>
<feOffset dy="4"/>
<feGaussianBlur stdDeviation="2"/>
<feComposite in2="hardAlpha" operator="out"/>
<feColorMatrix type="matrix" values="0 0 0 0 0 0 0 0 0 0 0 0 0 0 0 0 0 0 0.25 0"/>
<feBlend mode="normal" in2="BackgroundImageFix" result="effect1_dropShadow_1_171"/>
<feBlend mode="normal" in="SourceGraphic" in2="effect1_dropShadow_1_171" result="shape"/>
<feGaussianBlur stdDeviation="0.5" result="effect2_foregroundBlur_1_171"/>
</filter>
<linearGradient id="paint0_linear_1_171" x1="256" y1="0" x2="256" y2="512" gradientUnits="userSpaceOnUse">
<stop stop-color="#A6E3A1"/>
<stop offset="1" stop-color="#94E2D5"/>
</linearGradient>
<linearGradient id="paint1_linear_1_171" x1="256" y1="22" x2="256" y2="534" gradientUnits="userSpaceOnUse">
<stop stop-color="#A6E3A1"/>
<stop offset="1" stop-color="#94E2D5"/>
</linearGradient>
<clipPath id="clip0_1_171">
<rect width="512" height="512" fill="white"/>
</clipPath>
</defs>
</svg>
