<svg width="64" height="64" viewBox="0 0 64 64" fill="none" xmlns="http://www.w3.org/2000/svg">
<g filter="url(#filter0_di_1_27)">
<circle cx="32" cy="32" r="32" fill="black" fill-opacity="0.25" shape-rendering="crispEdges"/>
<circle cx="32" cy="32" r="30" stroke="url(#paint0_linear_1_27)" stroke-width="4" shape-rendering="crispEdges"/>
<circle cx="32" cy="32" r="30" stroke="black" stroke-opacity="0.18" stroke-width="4" shape-rendering="crispEdges"/>
</g>
<g filter="url(#filter1_df_1_27)">
<mask id="path-3-outside-1_1_27" maskUnits="userSpaceOnUse" x="11" y="11" width="42" height="42" fill="black">
<rect fill="white" x="11" y="11" width="42" height="42"/>
<path d="M47.7292 12.376C48.2892 13.9813 48.8492 15.568 49.4092 17.136C49.9692 18.704 50.5106 20.328 51.0332 22.008C50.7346 22.0827 50.4546 22.176 50.1932 22.288C49.9692 22.4 49.7079 22.4933 49.4092 22.568C48.6999 21 48.0092 19.7307 47.3372 18.76C46.7026 17.752 46.0679 16.9493 45.4332 16.352C44.6119 15.6053 43.6412 15.1013 42.5212 14.84C41.4012 14.5787 40.2999 14.448 39.2172 14.448C37.0519 14.448 35.6332 14.616 34.9612 14.952C34.2146 15.288 33.8412 15.96 33.8412 16.968V46.704C33.8412 47.7867 34.2519 48.552 35.0732 49C35.8199 49.4107 37.4439 49.616 39.9452 49.616V51.408H24.1532V49.616C26.3932 49.616 27.9052 49.4293 28.6892 49.056C29.7346 48.5707 30.2572 47.7867 30.2572 46.704V16.52C30.2572 15.736 29.9586 15.1947 29.3612 14.896C28.8012 14.5973 27.6626 14.448 25.9452 14.448C24.6386 14.448 23.2946 14.56 21.9132 14.784C20.5692 15.008 19.4119 15.5307 18.4412 16.352C18.0306 16.688 17.6386 17.0987 17.2652 17.584C16.8919 18.032 16.4626 18.6293 15.9772 19.376C15.6786 19.8613 15.3986 20.3467 15.1372 20.832C14.8759 21.28 14.5959 21.7653 14.2972 22.288C14.0732 22.176 13.8492 22.0827 13.6252 22.008C13.4386 21.896 13.2332 21.784 13.0092 21.672C13.5692 20.104 14.1292 18.5547 14.6892 17.024C15.2492 15.4933 15.8092 13.944 16.3692 12.376H47.7292Z"/>
</mask>
<path d="M47.7292 12.376C48.2892 13.9813 48.8492 15.568 49.4092 17.136C49.9692 18.704 50.5106 20.328 51.0332 22.008C50.7346 22.0827 50.4546 22.176 50.1932 22.288C49.9692 22.4 49.7079 22.4933 49.4092 22.568C48.6999 21 48.0092 19.7307 47.3372 18.76C46.7026 17.752 46.0679 16.9493 45.4332 16.352C44.6119 15.6053 43.6412 15.1013 42.5212 14.84C41.4012 14.5787 40.2999 14.448 39.2172 14.448C37.0519 14.448 35.6332 14.616 34.9612 14.952C34.2146 15.288 33.8412 15.96 33.8412 16.968V46.704C33.8412 47.7867 34.2519 48.552 35.0732 49C35.8199 49.4107 37.4439 49.616 39.9452 49.616V51.408H24.1532V49.616C26.3932 49.616 27.9052 49.4293 28.6892 49.056C29.7346 48.5707 30.2572 47.7867 30.2572 46.704V16.52C30.2572 15.736 29.9586 15.1947 29.3612 14.896C28.8012 14.5973 27.6626 14.448 25.9452 14.448C24.6386 14.448 23.2946 14.56 21.9132 14.784C20.5692 15.008 19.4119 15.5307 18.4412 16.352C18.0306 16.688 17.6386 17.0987 17.2652 17.584C16.8919 18.032 16.4626 18.6293 15.9772 19.376C15.6786 19.8613 15.3986 20.3467 15.1372 20.832C14.8759 21.28 14.5959 21.7653 14.2972 22.288C14.0732 22.176 13.8492 22.0827 13.6252 22.008C13.4386 21.896 13.2332 21.784 13.0092 21.672C13.5692 20.104 14.1292 18.5547 14.6892 17.024C15.2492 15.4933 15.8092 13.944 16.3692 12.376H47.7292Z" fill="url(#paint1_linear_1_27)"/>
<path d="M47.7292 12.376L48.6734 12.0466L48.4395 11.376H47.7292V12.376ZM51.0332 22.008L51.2758 22.9781L52.3025 22.7215L51.9881 21.7109L51.0332 22.008ZM50.1932 22.288L49.7993 21.3689L49.7723 21.3804L49.746 21.3936L50.1932 22.288ZM49.4092 22.568L48.4981 22.9802L48.8421 23.7406L49.6518 23.5381L49.4092 22.568ZM47.3372 18.76L46.491 19.2928L46.5026 19.3113L46.515 19.3292L47.3372 18.76ZM45.4332 16.352L46.1186 15.6238L46.1123 15.6179L46.1059 15.6121L45.4332 16.352ZM42.5212 14.84L42.294 15.8138L42.294 15.8138L42.5212 14.84ZM34.9612 14.952L35.3716 15.8639L35.3902 15.8555L35.4084 15.8464L34.9612 14.952ZM35.0732 49L35.5551 48.1238L35.5521 48.1221L35.0732 49ZM39.9452 49.616H40.9452V48.616H39.9452V49.616ZM39.9452 51.408V52.408H40.9452V51.408H39.9452ZM24.1532 51.408H23.1532V52.408H24.1532V51.408ZM24.1532 49.616V48.616H23.1532V49.616H24.1532ZM28.6892 49.056L28.2681 48.1489L28.2593 48.1531L28.6892 49.056ZM29.3612 14.896L28.8906 15.7784L28.9022 15.7845L28.914 15.7904L29.3612 14.896ZM21.9132 14.784L21.7531 13.7969L21.7488 13.7976L21.9132 14.784ZM18.4412 16.352L19.0745 17.126L19.0809 17.1207L19.0872 17.1154L18.4412 16.352ZM17.2652 17.584L18.0334 18.2242L18.0459 18.2092L18.0578 18.1937L17.2652 17.584ZM15.9772 19.376L15.1388 18.831L15.132 18.8414L15.1256 18.8519L15.9772 19.376ZM15.1372 20.832L16.001 21.3359L16.0096 21.3211L16.0177 21.3061L15.1372 20.832ZM14.2972 22.288L13.85 23.1824L14.6961 23.6055L15.1655 22.7841L14.2972 22.288ZM13.6252 22.008L13.1107 22.8655L13.2049 22.922L13.309 22.9567L13.6252 22.008ZM13.0092 21.672L12.0675 21.3357L11.7694 22.1701L12.562 22.5664L13.0092 21.672ZM14.6892 17.024L15.6283 17.3676V17.3676L14.6892 17.024ZM16.3692 12.376V11.376H15.6645L15.4275 12.0397L16.3692 12.376ZM47.7292 12.376L46.785 12.7054C47.3458 14.313 47.9066 15.902 48.4675 17.4723L49.4092 17.136L50.351 16.7997C49.7918 15.234 49.2326 13.6497 48.6734 12.0466L47.7292 12.376ZM49.4092 17.136L48.4675 17.4723C49.0226 19.0266 49.5596 20.6375 50.0784 22.3051L51.0332 22.008L51.9881 21.7109C51.4615 20.0185 50.9159 18.3814 50.351 16.7997L49.4092 17.136ZM51.0332 22.008L50.7907 21.0379C50.4445 21.1244 50.1135 21.2342 49.7993 21.3689L50.1932 22.288L50.5871 23.2071C50.7956 23.1178 51.0246 23.0409 51.2758 22.9781L51.0332 22.008ZM50.1932 22.288L49.746 21.3936C49.6001 21.4665 49.41 21.537 49.1667 21.5979L49.4092 22.568L49.6518 23.5381C50.0058 23.4496 50.3383 23.3335 50.6404 23.1824L50.1932 22.288ZM49.4092 22.568L50.3203 22.1558C49.5963 20.5554 48.8774 19.2279 48.1594 18.1908L47.3372 18.76L46.515 19.3292C47.1411 20.2335 47.8034 21.4446 48.4981 22.9802L49.4092 22.568ZM47.3372 18.76L48.1835 18.2272C47.5189 17.1717 46.8328 16.296 46.1186 15.6238L45.4332 16.352L44.7479 17.0802C45.303 17.6027 45.8862 18.3323 46.491 19.2928L47.3372 18.76ZM45.4332 16.352L46.1059 15.6121C45.1538 14.7465 44.0282 14.1648 42.7484 13.8662L42.5212 14.84L42.294 15.8138C43.2542 16.0379 44.07 16.4642 44.7605 17.0919L45.4332 16.352ZM42.5212 14.84L42.7485 13.8662C41.5586 13.5885 40.381 13.448 39.2172 13.448V14.448V15.448C40.2188 15.448 41.2439 15.5688 42.294 15.8138L42.5212 14.84ZM39.2172 14.448V13.448C38.1131 13.448 37.1744 13.4906 36.4116 13.5809C35.6717 13.6686 35.0088 13.8102 34.514 14.0576L34.9612 14.952L35.4084 15.8464C35.5857 15.7578 35.9681 15.6474 36.6468 15.5671C37.3027 15.4894 38.156 15.448 39.2172 15.448V14.448ZM34.9612 14.952L34.5509 14.0401C33.9946 14.2904 33.5454 14.6854 33.2471 15.2224C32.9561 15.7461 32.8412 16.3453 32.8412 16.968H33.8412H34.8412C34.8412 16.5827 34.913 16.3419 34.9954 16.1936C35.0704 16.0586 35.1811 15.9496 35.3716 15.8639L34.9612 14.952ZM33.8412 16.968H32.8412V46.704H33.8412H34.8412V16.968H33.8412ZM33.8412 46.704H32.8412C32.8412 48.0831 33.3951 49.2237 34.5944 49.8779L35.0732 49L35.5521 48.1221C35.1087 47.8803 34.8412 47.4902 34.8412 46.704H33.8412ZM35.0732 49L34.5913 49.8762C35.1353 50.1754 35.8823 50.3475 36.7258 50.4541C37.595 50.564 38.672 50.616 39.9452 50.616V49.616V48.616C38.7171 48.616 37.7314 48.5653 36.9767 48.4699C36.1961 48.3712 35.7578 48.2353 35.5551 48.1238L35.0732 49ZM39.9452 49.616H38.9452V51.408H39.9452H40.9452V49.616H39.9452ZM39.9452 51.408V50.408H24.1532V51.408V52.408H39.9452V51.408ZM24.1532 51.408H25.1532V49.616H24.1532H23.1532V51.408H24.1532ZM24.1532 49.616V50.616C25.2971 50.616 26.2791 50.5686 27.0897 50.4685C27.8847 50.3703 28.5834 50.214 29.1192 49.9589L28.6892 49.056L28.2593 48.1531C28.011 48.2714 27.5617 48.395 26.8447 48.4835C26.1434 48.5701 25.2494 48.616 24.1532 48.616V49.616ZM28.6892 49.056L29.1103 49.963C29.7625 49.6602 30.3134 49.2346 30.6973 48.6587C31.0838 48.0789 31.2572 47.4125 31.2572 46.704H30.2572H29.2572C29.2572 47.0782 29.1693 47.3451 29.0332 47.5493C28.8944 47.7574 28.6612 47.9665 28.2681 48.149L28.6892 49.056ZM30.2572 46.704H31.2572V16.52H30.2572H29.2572V46.704H30.2572ZM30.2572 16.52H31.2572C31.2572 16.0034 31.1588 15.496 30.9088 15.0429C30.6537 14.5806 30.273 14.2338 29.8084 14.0016L29.3612 14.896L28.914 15.7904C29.0468 15.8568 29.1141 15.9301 29.1576 16.0091C29.2063 16.0973 29.2572 16.2526 29.2572 16.52H30.2572ZM29.3612 14.896L29.8318 14.0136C29.3922 13.7792 28.8254 13.6482 28.2173 13.5685C27.5893 13.4861 26.8283 13.448 25.9452 13.448V14.448V15.448C26.7794 15.448 27.4464 15.4845 27.9572 15.5515C28.4877 15.6211 28.7702 15.7141 28.8906 15.7784L29.3612 14.896ZM25.9452 14.448V13.448C24.5813 13.448 23.1837 13.5649 21.7531 13.7969L21.9132 14.784L22.0733 15.7711C23.4054 15.5551 24.6958 15.448 25.9452 15.448V14.448ZM21.9132 14.784L21.7488 13.7976C20.2403 14.049 18.9133 14.6426 17.7953 15.5886L18.4412 16.352L19.0872 17.1154C19.9105 16.4187 20.8981 15.967 22.0776 15.7704L21.9132 14.784ZM18.4412 16.352L17.808 15.578C17.3298 15.9693 16.8856 16.4374 16.4726 16.9743L17.2652 17.584L18.0578 18.1937C18.3915 17.76 18.7313 17.4067 19.0745 17.126L18.4412 16.352ZM17.2652 17.584L16.497 16.9438C16.0889 17.4335 15.6357 18.0665 15.1388 18.831L15.9772 19.376L16.8157 19.921C17.2894 19.1921 17.6948 18.6305 18.0334 18.2242L17.2652 17.584ZM15.9772 19.376L15.1256 18.8519C14.8171 19.3531 14.5275 19.8551 14.2567 20.3579L15.1372 20.832L16.0177 21.3061C16.2696 20.8383 16.54 20.3696 16.8289 19.9001L15.9772 19.376ZM15.1372 20.832L14.2734 20.3281C14.0104 20.7791 13.7289 21.267 13.429 21.7919L14.2972 22.288L15.1655 22.7841C15.4629 22.2637 15.7414 21.7809 16.001 21.3359L15.1372 20.832ZM14.2972 22.288L14.7444 21.3936C14.4806 21.2617 14.213 21.1498 13.9414 21.0593L13.6252 22.008L13.309 22.9567C13.4855 23.0155 13.6658 23.0903 13.85 23.1824L14.2972 22.288ZM13.6252 22.008L14.1397 21.1505C13.9281 21.0236 13.7 20.8994 13.4564 20.7776L13.0092 21.672L12.562 22.5664C12.7664 22.6686 12.949 22.7684 13.1107 22.8655L13.6252 22.008ZM13.0092 21.672L13.951 22.0083C14.5101 20.4427 15.0692 18.8958 15.6283 17.3676L14.6892 17.024L13.7501 16.6804C13.1892 18.2135 12.6283 19.7653 12.0675 21.3357L13.0092 21.672ZM14.6892 17.024L15.6283 17.3676C16.1892 15.8344 16.7501 14.2827 17.311 12.7123L16.3692 12.376L15.4275 12.0397C14.8683 13.6053 14.3092 15.1522 13.7501 16.6804L14.6892 17.024ZM16.3692 12.376V13.376H47.7292V12.376V11.376H16.3692V12.376Z" fill="black" mask="url(#path-3-outside-1_1_27)"/>
</g>
<circle cx="32" cy="32" r="31.75" stroke="black" stroke-width="0.5"/>
<circle cx="32" cy="32" r="27.75" stroke="black" stroke-width="0.5"/>
<defs>
<filter id="filter0_di_1_27" x="-12" y="-12" width="88" height="88" filterUnits="userSpaceOnUse" color-interpolation-filters="sRGB">
<feFlood flood-opacity="0" result="BackgroundImageFix"/>
<feColorMatrix in="SourceAlpha" type="matrix" values="0 0 0 0 0 0 0 0 0 0 0 0 0 0 0 0 0 0 127 0" result="hardAlpha"/>
<feOffset/>
<feGaussianBlur stdDeviation="6"/>
<feComposite in2="hardAlpha" operator="out"/>
<feColorMatrix type="matrix" values="0 0 0 0 0.65098 0 0 0 0 0.890196 0 0 0 0 0.631373 0 0 0 0.3 0"/>
<feBlend mode="normal" in2="BackgroundImageFix" result="effect1_dropShadow_1_27"/>
<feBlend mode="normal" in="SourceGraphic" in2="effect1_dropShadow_1_27" result="shape"/>
<feColorMatrix in="SourceAlpha" type="matrix" values="0 0 0 0 0 0 0 0 0 0 0 0 0 0 0 0 0 0 127 0" result="hardAlpha"/>
<feOffset dy="2"/>
<feGaussianBlur stdDeviation="2"/>
<feComposite in2="hardAlpha" operator="arithmetic" k2="-1" k3="1"/>
<feColorMatrix type="matrix" values="0 0 0 0 0.117647 0 0 0 0 0.117647 0 0 0 0 0.180392 0 0 0 0.2 0"/>
<feBlend mode="normal" in2="shape" result="effect2_innerShadow_1_27"/>
</filter>
<filter id="filter1_df_1_27" x="7.76947" y="10.376" width="48.533" height="50.032" filterUnits="userSpaceOnUse" color-interpolation-filters="sRGB">
<feFlood flood-opacity="0" result="BackgroundImageFix"/>
<feColorMatrix in="SourceAlpha" type="matrix" values="0 0 0 0 0 0 0 0 0 0 0 0 0 0 0 0 0 0 127 0" result="hardAlpha"/>
<feOffset dy="4"/>
<feGaussianBlur stdDeviation="2"/>
<feComposite in2="hardAlpha" operator="out"/>
<feColorMatrix type="matrix" values="0 0 0 0 0 0 0 0 0 0 0 0 0 0 0 0 0 0 0.25 0"/>
<feBlend mode="normal" in2="BackgroundImageFix" result="effect1_dropShadow_1_27"/>
<feBlend mode="normal" in="SourceGraphic" in2="effect1_dropShadow_1_27" result="shape"/>
<feGaussianBlur stdDeviation="0.5" result="effect2_foregroundBlur_1_27"/>
</filter>
<linearGradient id="paint0_linear_1_27" x1="32" y1="0" x2="32" y2="64" gradientUnits="userSpaceOnUse">
<stop stop-color="#A6E3A1"/>
<stop offset="1" stop-color="#94E2D5"/>
</linearGradient>
<linearGradient id="paint1_linear_1_27" x1="32" y1="4" x2="32" y2="60" gradientUnits="userSpaceOnUse">
<stop stop-color="#A6E3A1"/>
<stop offset="1" stop-color="#94E2D5"/>
</linearGradient>
</defs>
</svg>
